<?xml version="1.0" encoding="UTF-8" standalone="no"?>
<svg
   width="400mm"
   height="424.37552mm"
   viewBox="0 0 400 424.37552"
   version="1.1"
   id="svg8"
   inkscape:version="1.1 (c68e22c387, 2021-05-23)"
   sodipodi:docname="septisearch_wrapper.svg"
   inkscape:export-filename="C:\Users\Merlin\Files\Work\curation\www\septisearch_wrapper.png"
   inkscape:export-xdpi="250"
   inkscape:export-ydpi="250"
   xmlns:inkscape="http://www.inkscape.org/namespaces/inkscape"
   xmlns:sodipodi="http://sodipodi.sourceforge.net/DTD/sodipodi-0.dtd"
   xmlns="http://www.w3.org/2000/svg"
   xmlns:svg="http://www.w3.org/2000/svg"
   xmlns:rdf="http://www.w3.org/1999/02/22-rdf-syntax-ns#"
   xmlns:cc="http://creativecommons.org/ns#"
   xmlns:dc="http://purl.org/dc/elements/1.1/">
  <defs
     id="defs2" />
  <sodipodi:namedview
     id="base"
     pagecolor="#ffffff"
     bordercolor="#666666"
     borderopacity="1.0"
     inkscape:pageopacity="0.0"
     inkscape:pageshadow="2"
     inkscape:zoom="0.49497475"
     inkscape:cx="922.26927"
     inkscape:cy="807.11188"
     inkscape:document-units="mm"
     inkscape:current-layer="layer1"
     inkscape:document-rotation="0"
     showgrid="false"
     inkscape:window-width="2560"
     inkscape:window-height="1377"
     inkscape:window-x="1912"
     inkscape:window-y="-8"
     inkscape:window-maximized="1"
     inkscape:pagecheckerboard="0" />
  <metadata
     id="metadata5">
    <rdf:RDF>
      <cc:Work
         rdf:about="">
        <dc:format>image/svg+xml</dc:format>
        <dc:type
           rdf:resource="http://purl.org/dc/dcmitype/StillImage" />
        <dc:title />
      </cc:Work>
    </rdf:RDF>
  </metadata>
  <g
     inkscape:label="Layer 1"
     inkscape:groupmode="layer"
     id="layer1"
     transform="translate(-111.94544,-195.09588)">
    <g
       id="g29"
       transform="matrix(8.0379583,0,0,8.0379583,-787.86738,-1373.0763)"
       style="fill:#cccccc;stroke:#cccccc">
      <path
         d="m 153.13246,221.8413 q 0,4.12153 -3.06626,6.31172 -3.04635,2.17028 -8.95986,2.17028 -5.39582,0 -8.46208,-1.91144 -3.06626,-1.91144 -3.94234,-5.79404 l 5.67458,-0.93581 q 0.57741,2.23001 2.24992,3.24546 1.6725,0.99554 4.63921,0.99554 6.15243,0 6.15243,-3.74323 0,-1.19465 -0.71678,-1.97117 -0.69688,-0.77652 -1.99108,-1.2942 -1.27429,-0.51768 -4.91797,-1.25438 -3.1459,-0.7367 -4.38037,-1.17474 -1.23447,-0.45794 -2.23001,-1.05527 -0.99554,-0.61723 -1.69242,-1.4734 -0.69688,-0.85616 -1.09509,-2.01099 -0.37831,-1.15482 -0.37831,-2.64813 0,-3.80296 2.84725,-5.81395 2.86715,-2.0309 8.32271,-2.0309 5.21662,0 7.82494,1.63268 2.62822,1.63269 3.38483,5.39583 l -5.69448,0.77652 q -0.43804,-1.81188 -1.79198,-2.72778 -1.33402,-0.9159 -3.84278,-0.9159 -5.33609,0 -5.33609,3.34502 0,1.09509 0.5575,1.79197 0.57741,0.69687 1.69242,1.19464 1.115,0.47786 4.51975,1.21456 4.04189,0.85617 5.77413,1.59287 1.75215,0.71678 2.7676,1.69241 1.01545,0.95572 1.55304,2.30966 0.53759,1.33402 0.53759,3.08617 z"
         id="path13"
         style="font-weight:bold;font-size:40.7773px;line-height:1.25;font-family:'Liberation Sans';-inkscape-font-specification:'Liberation Sans, Bold';letter-spacing:0px;word-spacing:0px;fill:#e6e6e6;stroke:none;stroke-width:0.264583" />
      <circle
         style="fill:none;fill-opacity:0.412252;stroke:#e6e6e6;stroke-width:3.96875;stroke-linecap:square;stroke-miterlimit:5.5;stroke-dasharray:none"
         id="path841"
         cx="140.91716"
         cy="215.888"
         r="18.807791" />
      <path
         style="fill:#cccccc;stroke:#e6e6e6;stroke-width:1.5875;stroke-linecap:round;stroke-linejoin:miter;stroke-miterlimit:5.5;stroke-dasharray:none;stroke-opacity:1"
         d="m 128.32333,231.53035 -6.57298,6.57297"
         id="path843" />
      <path
         style="fill:#cccccc;stroke:#e6e6e6;stroke-width:3.96875;stroke-linecap:round;stroke-linejoin:miter;stroke-miterlimit:5.5;stroke-dasharray:none;stroke-opacity:1"
         d="m 124.50614,235.33157 -10.57632,10.57632"
         id="path838" />
    </g>
  </g>
</svg>
