<?xml version="1.0" encoding="UTF-8" standalone="no"?>
<svg
   width="302.68387mm"
   height="63.228218mm"
   viewBox="0 0 302.68386 63.228217"
   version="1.1"
   id="svg8"
   inkscape:version="1.1 (c68e22c387, 2021-05-23)"
   sodipodi:docname="septisearch.svg"
   inkscape:export-filename="/home/travis/Downloads/drawing.png"
   inkscape:export-xdpi="150"
   inkscape:export-ydpi="150"
   xmlns:inkscape="http://www.inkscape.org/namespaces/inkscape"
   xmlns:sodipodi="http://sodipodi.sourceforge.net/DTD/sodipodi-0.dtd"
   xmlns="http://www.w3.org/2000/svg"
   xmlns:svg="http://www.w3.org/2000/svg"
   xmlns:rdf="http://www.w3.org/1999/02/22-rdf-syntax-ns#"
   xmlns:cc="http://creativecommons.org/ns#"
   xmlns:dc="http://purl.org/dc/elements/1.1/">
  <defs
     id="defs2" />
  <sodipodi:namedview
     id="base"
     pagecolor="#ffffff"
     bordercolor="#666666"
     borderopacity="1.0"
     inkscape:pageopacity="0.0"
     inkscape:pageshadow="2"
     inkscape:zoom="0.98994949"
     inkscape:cx="303.55084"
     inkscape:cy="124.75384"
     inkscape:document-units="mm"
     inkscape:current-layer="layer1"
     inkscape:document-rotation="0"
     showgrid="false"
     inkscape:window-width="2560"
     inkscape:window-height="1377"
     inkscape:window-x="1912"
     inkscape:window-y="-8"
     inkscape:window-maximized="1"
     inkscape:snap-global="false"
     inkscape:pagecheckerboard="0" />
  <metadata
     id="metadata5">
    <rdf:RDF>
      <cc:Work
         rdf:about="">
        <dc:format>image/svg+xml</dc:format>
        <dc:type
           rdf:resource="http://purl.org/dc/dcmitype/StillImage" />
        <dc:title />
      </cc:Work>
    </rdf:RDF>
  </metadata>
  <g
     inkscape:label="Layer 1"
     inkscape:groupmode="layer"
     id="layer1"
     transform="translate(58.34526,-113.18555)">
    <g
       aria-label="eptiSearch"
       id="text835"
       style="font-weight:bold;font-size:48.2299px;line-height:1.25;font-family:'Liberation Sans';-inkscape-font-specification:'Liberation Sans, Bold';letter-spacing:0px;word-spacing:0px;fill:#4582ec;stroke-width:359317"
       inkscape:label="group1">
      <path
         d="m 14.516549,155.45447 q -5.74614,0 -8.831158,-3.39117 -3.0850181,-3.41471 -3.0850181,-9.93799 0,-6.31134 3.1321176,-9.7025 3.1321175,-3.39117 8.8782585,-3.39117 5.487093,0 8.383713,3.65022 2.89662,3.62666 2.89662,10.64449 v 0.18839 H 9.547551 q 0,3.72086 1.365886,5.6284 1.389435,1.88398 3.932809,1.88398 3.508914,0 4.427354,-3.03792 l 6.240686,0.54164 q -2.708222,6.92363 -10.997737,6.92363 z m 0,-22.25452 q -2.331425,0 -3.603112,1.62493 -1.2481372,1.62494 -1.3187865,4.54511 h 9.8908975 q -0.188398,-3.08502 -1.483635,-4.61576 -1.295236,-1.55428 -3.485364,-1.55428 z"
         id="path36" />
      <path
         d="m 55.022129,142.12531 q 0,6.38198 -2.566923,9.86735 -2.543374,3.46181 -7.206225,3.46181 -2.684673,0 -4.686402,-1.15394 -1.978179,-1.17749 -3.037918,-3.36761 h -0.141299 q 0.141299,0.70649 0.141299,4.28605 v 9.77315 h -6.617482 v -29.62559 q 0,-3.60311 -0.188398,-5.86389 h 6.429084 q 0.117748,0.42389 0.188398,1.67203 0.0942,1.24814 0.0942,2.47273 h 0.0942 q 2.237226,-4.68641 8.148215,-4.68641 4.450904,0 6.900079,3.43827 2.449174,3.41471 2.449174,9.72605 z m -6.900078,0 q 0,-8.57211 -5.251596,-8.57211 -2.637572,0 -4.050558,2.30787 -1.389435,2.30788 -1.389435,6.45264 0,4.1212 1.389435,6.38198 1.412986,2.23723 4.003459,2.23723 5.298695,0 5.298695,-8.80761 z"
         id="path38" />
      <path
         d="m 66.891206,155.40737 q -2.920169,0 -4.498003,-1.57783 -1.577834,-1.60139 -1.577834,-4.8277 v -15.02475 h -3.226316 v -4.47445 h 3.556013 l 2.072379,-5.98164 h 4.144757 v 5.98164 h 4.8277 v 4.47445 h -4.8277 v 13.23497 q 0,1.86043 0.706492,2.75532 0.706493,0.87134 2.190128,0.87134 0.777142,0 2.213677,-0.3297 v 4.09766 q -2.449175,0.80069 -5.581293,0.80069 z"
         id="path40" />
      <path
         d="m 76.428856,124.91044 v -4.8748 h 6.617482 v 4.8748 z m 0,30.07303 v -25.48083 h 6.617482 v 25.48083 z"
         id="path42" />
      <path
         d="m 116.74604,145.42227 q 0,4.8748 -3.62666,7.46528 -3.60312,2.56692 -10.59739,2.56692 -6.381988,0 -10.008651,-2.26078 -3.626662,-2.26077 -4.662852,-6.85298 l 6.711681,-1.10683 q 0.682943,2.63757 2.661122,3.83861 1.97818,1.17748 5.48709,1.17748 7.27688,0 7.27688,-4.42735 0,-1.41299 -0.84779,-2.33143 -0.82424,-0.91844 -2.35498,-1.53073 -1.50718,-0.61229 -5.81679,-1.48363 -3.72086,-0.87135 -5.180945,-1.38944 -1.460085,-0.54164 -2.637572,-1.24814 -1.177488,-0.73004 -2.00173,-1.74268 -0.824241,-1.01264 -1.295236,-2.37852 -0.447446,-1.36589 -0.447446,-3.13212 0,-4.49801 3.367615,-6.87653 3.391165,-2.40208 9.843794,-2.40208 6.17004,0 9.25506,1.93108 3.10857,1.93108 4.00346,6.38199 l -6.73523,0.91844 q -0.5181,-2.14303 -2.11948,-3.22632 -1.57783,-1.08329 -4.5451,-1.08329 -6.311339,0 -6.311339,3.95636 0,1.29524 0.659394,2.11948 0.682942,0.82424 2.001729,1.41299 1.318786,0.56519 5.345796,1.43653 4.7806,1.01264 6.82943,1.88398 2.07238,0.84779 3.27341,2.00173 1.20104,1.13039 1.83688,2.73177 0.63585,1.57784 0.63585,3.65021 z"
         id="path44" />
      <path
         d="m 132.43018,155.45447 q -5.74614,0 -8.83116,-3.39117 -3.08502,-3.41471 -3.08502,-9.93799 0,-6.31134 3.13212,-9.7025 3.13212,-3.39117 8.87826,-3.39117 5.48709,0 8.38371,3.65022 2.89662,3.62666 2.89662,10.64449 v 0.18839 h -16.34353 q 0,3.72086 1.36588,5.6284 1.38944,1.88398 3.93281,1.88398 3.50892,0 4.42736,-3.03792 l 6.24068,0.54164 q -2.70822,6.92363 -10.99773,6.92363 z m 0,-22.25452 q -2.33143,0 -3.60312,1.62493 -1.24813,1.62494 -1.31878,4.54511 h 9.8909 q -0.1884,-3.08502 -1.48364,-4.61576 -1.29524,-1.55428 -3.48536,-1.55428 z"
         id="path46" />
      <path
         d="m 154.70825,155.45447 q -3.69731,0 -5.76969,-2.00173 -2.07238,-2.02528 -2.07238,-5.67549 0,-3.95636 2.56692,-6.02874 2.59048,-2.07238 7.48882,-2.11948 l 5.4871,-0.0942 v -1.29523 q 0,-2.49628 -0.87134,-3.69731 -0.87134,-1.22459 -2.84952,-1.22459 -1.83688,0 -2.70823,0.84779 -0.84779,0.82424 -1.05973,2.75532 l -6.90008,-0.32969 q 0.63584,-3.72087 3.39116,-5.6284 2.77887,-1.93108 7.55947,-1.93108 4.8277,0 7.44173,2.37853 2.61402,2.37852 2.61402,6.75878 v 9.2786 q 0,2.14303 0.47099,2.96727 0.49455,0.80069 1.62494,0.80069 0.75359,0 1.46008,-0.14129 v 3.57956 q -0.58874,0.1413 -1.05974,0.25905 -0.47099,0.11774 -0.94199,0.18839 -0.47099,0.0707 -1.01264,0.11775 -0.51809,0.0471 -1.22458,0.0471 -2.49628,0 -3.69732,-1.22459 -1.17748,-1.22458 -1.41298,-3.60311 h -0.1413 q -2.77887,5.0161 -8.38371,5.0161 z m 7.70077,-12.26942 -3.39117,0.0471 q -2.30787,0.0942 -3.27341,0.51809 -0.96554,0.40035 -1.48364,1.24814 -0.49454,0.84779 -0.49454,2.26077 0,1.81334 0.82424,2.70823 0.84779,0.87134 2.23723,0.87134 1.55428,0 2.82597,-0.84779 1.29523,-0.84779 2.02528,-2.33143 0.73004,-1.50718 0.73004,-3.17922 z"
         id="path48" />
      <path
         d="m 175.64397,154.98347 v -19.49919 q 0,-2.09593 -0.0706,-3.48537 -0.0471,-1.41298 -0.11775,-2.49627 h 6.31133 q 0.0707,0.42389 0.1884,2.59047 0.11775,2.14303 0.11775,2.84952 h 0.0942 q 0.96554,-2.68467 1.71913,-3.76796 0.75359,-1.10684 1.78978,-1.62493 1.03619,-0.54165 2.59047,-0.54165 1.27169,0 2.04883,0.35325 v 5.53419 q -1.60138,-0.35324 -2.82597,-0.35324 -2.47272,0 -3.86216,2.00173 -1.36588,2.00173 -1.36588,5.93453 v 12.50492 z"
         id="path50" />
      <path
         d="m 205.03408,155.45447 q -5.79324,0 -8.94891,-3.43826 -3.15566,-3.46182 -3.15566,-9.63185 0,-6.31134 3.17921,-9.82025 3.17922,-3.53247 9.01956,-3.53247 4.498,0 7.44172,2.26078 2.94372,2.26078 3.69731,6.24069 l -6.66458,0.32969 q -0.28259,-1.95463 -1.41298,-3.10857 -1.13039,-1.17748 -3.20277,-1.17748 -5.1103,0 -5.1103,8.54856 0,8.80761 5.2045,8.80761 1.88398,0 3.15567,-1.17749 1.27168,-1.20104 1.57783,-3.55601 l 6.64103,0.30614 q -0.35325,2.61403 -1.88398,4.66285 -1.50718,2.04883 -3.97991,3.17922 -2.47272,1.10684 -5.55774,1.10684 z"
         id="path52" />
      <path
         d="m 227.75959,134.58939 q 1.34233,-2.92017 3.36761,-4.23896 2.02528,-1.31879 4.8277,-1.31879 4.05056,0 6.21714,2.49628 2.16658,2.49627 2.16658,7.30042 v 16.15513 h -6.59394 v -14.27115 q 0,-6.71168 -4.5451,-6.71168 -2.40207,0 -3.88571,2.07238 -1.46008,2.04883 -1.46008,5.27515 v 13.6353 h -6.61748 v -34.94783 h 6.61748 v 9.53765 q 0,2.56692 -0.1884,5.0161 z"
         id="path54" />
    </g>
    <path
       d="m -9.6307089,145.60158 q 0,4.8748 -3.6266621,7.46527 -3.603113,2.56693 -10.597391,2.56693 -6.381983,0 -10.008646,-2.26078 -3.626662,-2.26078 -4.662852,-6.85298 l 6.711681,-1.10684 q 0.682943,2.63757 2.661122,3.83861 1.97818,1.17749 5.487093,1.17749 7.276875,0 7.276875,-4.42735 0,-1.41299 -0.847791,-2.33143 -0.824242,-0.91844 -2.354976,-1.53073 -1.507184,-0.6123 -5.816789,-1.48364 -3.720862,-0.87134 -5.180947,-1.38943 -1.460085,-0.54165 -2.637572,-1.24814 -1.177488,-0.73004 -2.00173,-1.74268 -0.824241,-1.01264 -1.295236,-2.37853 -0.447446,-1.36588 -0.447446,-3.13212 0,-4.498 3.367615,-6.87653 3.391165,-2.40207 9.843798,-2.40207 6.170037,0 9.255055,1.93108 3.108567,1.93108 4.003458,6.38198 l -6.73523,0.91844 q -0.518095,-2.14302 -2.119478,-3.22631 -1.577834,-1.08329 -4.545103,-1.08329 -6.311335,0 -6.311335,3.95636 0,1.29523 0.659393,2.11948 0.682943,0.82424 2.00173,1.41298 1.318786,0.5652 5.345794,1.43654 4.780601,1.01264 6.82943,1.88398 2.072378,0.84779 3.273416,2.00173 1.201037,1.13038 1.836881,2.73177 0.6358431,1.57783 0.6358431,3.65021 z"
       id="path14"
       style="font-weight:bold;font-size:48.2299px;line-height:1.25;font-family:'Liberation Sans';-inkscape-font-specification:'Liberation Sans, Bold';letter-spacing:0px;word-spacing:0px;fill:#4582ec;stroke-width:359317" />
    <circle
       style="fill:none;fill-opacity:0.412252;stroke:#000000;stroke-width:6.25881;stroke-linecap:square;stroke-miterlimit:5.5;stroke-dasharray:none"
       id="path841"
       cx="-24.078478"
       cy="138.56018"
       r="22.24523" />
    <path
       style="fill:none;stroke:#000000;stroke-width:1.87764;stroke-linecap:round;stroke-linejoin:miter;stroke-miterlimit:5.5;stroke-dasharray:none;stroke-opacity:1"
       d="m -38.974041,157.06144 -7.774294,7.77429"
       id="path843" />
    <path
       style="fill:none;stroke:#000000;stroke-width:4.69411;stroke-linecap:round;stroke-linejoin:miter;stroke-miterlimit:5.5;stroke-dasharray:none;stroke-opacity:1"
       d="m -43.488882,161.55739 -12.509323,12.50932"
       id="path838" />
  </g>
</svg>
