<?xml version="1.0" encoding="UTF-8" standalone="no"?>
<!-- Created with Inkscape (http://www.inkscape.org/) -->

<svg
   width="69.056252mm"
   height="17.197916mm"
   viewBox="0 0 69.056252 17.197916"
   version="1.1"
   id="svg5"
   inkscape:version="1.1 (c68e22c387, 2021-05-23)"
   sodipodi:docname="cihr_logo_v2.svg"
   xmlns:inkscape="http://www.inkscape.org/namespaces/inkscape"
   xmlns:sodipodi="http://sodipodi.sourceforge.net/DTD/sodipodi-0.dtd"
   xmlns="http://www.w3.org/2000/svg"
   xmlns:svg="http://www.w3.org/2000/svg">
  <sodipodi:namedview
     id="namedview7"
     pagecolor="#505050"
     bordercolor="#eeeeee"
     borderopacity="1"
     inkscape:pageshadow="0"
     inkscape:pageopacity="0"
     inkscape:pagecheckerboard="0"
     inkscape:document-units="mm"
     showgrid="false"
     inkscape:zoom="5.6568543"
     inkscape:cx="83.350212"
     inkscape:cy="30.49398"
     inkscape:window-width="2560"
     inkscape:window-height="1377"
     inkscape:window-x="1912"
     inkscape:window-y="-8"
     inkscape:window-maximized="1"
     inkscape:current-layer="layer1"
     inkscape:snap-page="false"
     inkscape:snap-global="false" />
  <defs
     id="defs2">
    <inkscape:path-effect
       effect="bspline"
       id="path-effect21745"
       is_visible="true"
       lpeversion="1"
       weight="33.333333"
       steps="2"
       helper_size="0"
       apply_no_weight="true"
       apply_with_weight="true"
       only_selected="false" />
  </defs>
  <g
     inkscape:label="Layer 1"
     inkscape:groupmode="layer"
     id="layer1"
     transform="translate(-32.036072,-84.224777)">
    <rect
       style="fill:#ffffff;stroke:none;stroke-width:0.0529166"
       id="rect888"
       width="73.289581"
       height="17.197916"
       x="30.779301"
       y="84.224777" />
    <g
       id="g10298"
       transform="translate(4.2333335,-0.06661519)">
      <text
         xml:space="preserve"
         style="font-style:normal;font-variant:normal;font-weight:normal;font-stretch:normal;font-size:7.96438px;line-height:1.25;font-family:sans-serif;-inkscape-font-specification:sans-serif;stroke-width:0.264583"
         x="44.09409"
         y="91.570007"
         id="text5020"><tspan
           sodipodi:role="line"
           id="tspan5018"
           style="font-style:normal;font-variant:normal;font-weight:normal;font-stretch:normal;font-family:sans-serif;-inkscape-font-specification:sans-serif;stroke-width:0.264583"
           x="44.09409"
           y="91.570007">CIHR</tspan></text>
      <text
         xml:space="preserve"
         style="font-style:normal;font-variant:normal;font-weight:normal;font-stretch:normal;font-size:7.96438px;line-height:1.25;font-family:sans-serif;-inkscape-font-specification:sans-serif;stroke-width:0.264583"
         x="45.229637"
         y="100.00898"
         id="text8828"><tspan
           sodipodi:role="line"
           id="tspan8826"
           style="font-style:normal;font-variant:normal;font-weight:normal;font-stretch:normal;font-family:sans-serif;-inkscape-font-specification:sans-serif;stroke-width:0.264583"
           x="45.229637"
           y="100.00898">IRSC</tspan></text>
    </g>
    <path
       style="fill:none;stroke:#000000;stroke-width:0.264583px;stroke-linecap:butt;stroke-linejoin:miter;stroke-opacity:1"
       d="M 69.503247,85.289978 V 100.35749"
       id="path10333" />
    <g
       id="g129404">
      <text
         xml:space="preserve"
         style="font-style:normal;font-variant:normal;font-weight:normal;font-stretch:normal;font-size:2.89017px;line-height:1.25;font-family:sans-serif;-inkscape-font-specification:sans-serif;stroke-width:0.264583"
         x="71.25708"
         y="87.875359"
         id="text11957"><tspan
           sodipodi:role="line"
           id="tspan11955"
           style="font-style:normal;font-variant:normal;font-weight:normal;font-stretch:normal;font-family:sans-serif;-inkscape-font-specification:sans-serif;stroke-width:0.264583"
           x="71.25708"
           y="87.875359">Canadian Institutes of</tspan><tspan
           sodipodi:role="line"
           style="font-style:normal;font-variant:normal;font-weight:normal;font-stretch:normal;font-family:sans-serif;-inkscape-font-specification:sans-serif;stroke-width:0.264583"
           x="71.25708"
           y="91.488068"
           id="tspan11959">Health Research</tspan></text>
      <text
         xml:space="preserve"
         style="font-style:normal;font-variant:normal;font-weight:normal;font-stretch:normal;font-size:2.89017px;line-height:1.25;font-family:sans-serif;-inkscape-font-specification:sans-serif;stroke-width:0.264583"
         x="71.259903"
         y="96.314331"
         id="text14459"><tspan
           sodipodi:role="line"
           style="font-style:normal;font-variant:normal;font-weight:normal;font-stretch:normal;font-family:sans-serif;-inkscape-font-specification:sans-serif;stroke-width:0.264583"
           x="71.259903"
           y="96.314331"
           id="tspan14457">Instituts de recherche</tspan><tspan
           sodipodi:role="line"
           style="font-style:normal;font-variant:normal;font-weight:normal;font-stretch:normal;font-family:sans-serif;-inkscape-font-specification:sans-serif;stroke-width:0.264583"
           x="71.259903"
           y="99.92704"
           id="tspan14683">en santé du Canada</tspan></text>
    </g>
    <path
       style="fill:#75c834;fill-opacity:1;fill-rule:nonzero;stroke:none;stroke-width:0.499999;stroke-miterlimit:4;stroke-dasharray:none;stroke-opacity:1"
       d=""
       id="path51614"
       transform="matrix(0.26458333,0,0,0.26458333,32.036072,84.224777)" />
    <path
       style="fill:#75c834;fill-opacity:1;fill-rule:nonzero;stroke:none;stroke-width:0.499999;stroke-miterlimit:4;stroke-dasharray:none;stroke-opacity:1"
       d=""
       id="path51653"
       transform="matrix(0.26458333,0,0,0.26458333,32.036072,84.224777)" />
    <g
       id="g107028"
       transform="translate(-0.52916663)">
      <path
         style="fill:#76c933;stroke:#76c933;stroke-width:0.264583px;stroke-linecap:butt;stroke-linejoin:miter;stroke-opacity:1;fill-opacity:1"
         d="m 32.333732,94.568332 c 0.274798,-0.103948 0.365037,-0.1454 0.568744,-0.263409 0.265519,-0.153815 0.456516,-0.455927 0.456516,-0.455927 0,0 0.335068,0.259984 0.529167,0.396875 0.427936,0.287647 0.818234,0.494842 1.21543,0.760677 0.41785,0.279658 0.860208,0.533342 1.227294,0.876934 0.322427,0.301791 0.746788,0.593027 0.839763,1.024759 0.08951,0.415667 0.09676,0.948596 -0.330733,1.231966 -0.541606,0.35901 -1.201282,0.320186 -1.893425,0.413411 -0.332481,0.04484 -0.606352,0.06324 -0.752409,0.08268 -0.146057,0.01944 -0.496093,0.05788 -0.496093,0.05788 l 0.243913,-0.198437 c 0.395205,-0.320825 0.75435,-0.593642 1.079003,-0.884701 0.234148,-0.230456 0.423836,-0.463858 0.596817,-0.734869 0.115498,-0.202332 0.128622,-0.478519 0.02329,-0.678998 -0.261719,-0.498129 -0.904506,-0.689135 -1.422135,-0.909505 -0.242756,-0.103349 -0.490601,-0.184596 -0.719336,-0.272852 -0.228735,-0.08826 -0.458794,-0.182123 -0.65319,-0.256315 -0.194396,-0.07419 -0.512617,-0.190169 -0.512616,-0.190169 z"
         id="path69904"
         sodipodi:nodetypes="csccaaasczccccaszzc" />
      <g
         id="g73291"
         transform="translate(4.7955731,18.405078)"
         style="fill:#34a53d;fill-opacity:1;stroke:#34a53d;stroke-opacity:1">
        <path
           style="fill:#34a53d;fill-opacity:1;stroke:#34a53d;stroke-width:0.264583px;stroke-linecap:butt;stroke-linejoin:miter;stroke-opacity:1"
           d="m 35.023644,74.60725 c 0,0 -0.262888,0.483235 -0.350791,0.67235 -0.330485,0.731156 -0.620213,1.3657 -0.660657,2.110594 -0.0089,0.163697 -0.02953,0.406545 0.02923,0.578806 0.139082,0.353433 0.415343,0.581455 0.713275,0.660657 0.659547,0.175333 1.214926,0.03274 1.759803,-0.29817 0.161574,-0.100746 0.309589,-0.200741 0.42095,-0.309866 0.111361,-0.109125 0.188455,-0.207572 0.2514,-0.327405 0.144688,-0.248905 0.107139,-0.516386 0.05876,-0.734949 -0.03336,-0.150712 -0.222461,-0.428509 -0.257541,-0.49282 C 36.647099,75.946 36.284372,75.657497 35.822904,75.288286 35.553285,75.07257 35.292399,74.833052 35.023647,74.60725 Z"
           id="path70840"
           sodipodi:nodetypes="ccscsczcscscc" />
        <path
           style="fill:#ffffff;fill-opacity:1;stroke:#34a53d;stroke-width:0.264583px;stroke-linecap:butt;stroke-linejoin:miter;stroke-opacity:1"
           d="m 35.554226,78.149695 c 0.209692,0.06176 0.414086,-0.05498 0.506429,-0.210843 0.114837,-0.19383 0.09969,-0.459524 0.03928,-0.675928 -0.04517,-0.16183 -0.204304,-0.328817 -0.390674,-0.39274 -0.625796,-0.176043 -0.659369,0.308144 -0.639197,0.666225 0.02712,0.481323 0.288626,0.5557 0.484162,0.613286 z"
           id="path71084"
           sodipodi:nodetypes="ssscss" />
      </g>
      <path
         style="fill:#028855;stroke:#028855;stroke-width:0.264583px;stroke-linecap:butt;stroke-linejoin:miter;stroke-opacity:1;fill-opacity:1"
         d="m 44.281323,100.32715 c 0,0 -0.315256,-0.632732 -0.463021,-0.963245 -0.147765,-0.330513 -0.239777,-0.56224 -0.256315,-0.603581 -0.01654,-0.04134 -0.158444,-0.359565 -0.165365,-0.504362 -0.0069,-0.144797 -0.0015,-0.227516 0.07441,-0.330729 0.0759,-0.103213 0.22532,-0.155931 0.372071,-0.214974 0.698149,-0.23808 1.353864,-0.107383 2.10013,-0.04134 0.253559,0.02205 0.537436,0.04961 0.570508,0.04961 0.03307,0 0.702799,0.04961 0.702799,0.04961 0,0 -0.195434,-0.345113 -0.338997,-0.529167 -0.143563,-0.184054 -0.423408,-0.451924 -0.686263,-0.607715 -0.49385,-0.2927 -0.922193,-0.509772 -1.620573,-0.58291 -0.20872,-0.0066 -0.521694,-0.02594 -0.735873,0.0083 -0.644139,0.08024 -1.090166,0.276909 -1.51722,0.711068 -0.290895,0.297618 -0.444186,0.51432 -0.538646,0.814126 -0.04969,0.157703 -0.04832,0.375698 -0.05253,0.508791 0.0012,0.53662 0.213677,0.806918 0.578777,1.107942 0.231856,0.204807 0.489817,0.411641 0.7028,0.578776 0.380159,0.25561 0.67982,0.51348 1.047997,0.72554 0.122062,0.0703 0.26807,0.13644 0.382408,0.17983 z"
         id="path71218"
         sodipodi:nodetypes="czzzzcczczacccscccacc" />
      <path
         style="fill:#028855;fill-opacity:1;stroke:#028855;stroke-width:0.264583px;stroke-linecap:butt;stroke-linejoin:miter;stroke-opacity:1"
         d="m 45.984578,92.311105 c 0,0 -0.119066,0.194027 -0.165365,0.297657 -0.08791,0.192782 -0.103902,0.298514 -0.07441,0.446484 0.01525,0.0765 0.05937,0.154795 0.124024,0.198438 0.183271,0.12372 0.432216,0.107642 0.65319,0.115755 0.313144,0.0115 0.54606,0.01394 0.818555,0 0.484106,-0.0147 0.87675,-0.02455 1.30638,-0.06615 0.183618,-0.01177 0.326595,-0.02481 0.326595,-0.02481 0,0 -0.244677,0.280737 -0.392741,0.388607 -0.430894,0.31392 -0.643548,0.505201 -0.914011,0.837398 -0.17272,0.212142 -0.406294,0.488124 -0.537063,0.779041 -0.161164,0.358538 -0.182305,0.561318 -0.355534,0.888835 0,0 -0.350103,-0.19502 -0.615983,-0.289389 -0.729125,-0.258789 -0.967143,-0.327243 -1.513086,-0.438216 -0.34971,-0.07108 -0.669507,-0.129619 -0.939741,-0.278696 -0.162827,-0.127388 -0.246914,-0.267827 -0.259152,-0.515052 0.004,-0.300383 0.0845,-0.591423 0.248047,-0.810286 0.232633,-0.311318 0.45934,-0.481158 0.694531,-0.686263 0.0845,-0.06824 0.175287,-0.128341 0.264583,-0.190169 0.240852,-0.181355 0.511999,-0.320915 0.760677,-0.446485 0.108621,-0.05307 0.216355,-0.109672 0.330729,-0.148828 0.07779,-0.02663 0.239775,-0.05787 0.239775,-0.05787 z"
         id="path71565"
         sodipodi:nodetypes="ccaascccssscssccscccacc" />
      <g
         id="g73299"
         transform="rotate(-1.0652985,1020.2569,-186.10408)"
         style="fill:#76c933;fill-opacity:1">
        <path
           style="fill:#76c933;fill-opacity:1;stroke:#76c933;stroke-width:0.264583px;stroke-linecap:butt;stroke-linejoin:miter;stroke-opacity:1"
           d="m 37.204396,66.86061 c 0,0 0.06357,0.471657 0.07601,0.713276 0.0097,0.414482 0.04613,0.831132 -0.09095,1.177572 -0.318488,0.804879 -0.681421,1.578971 -1.025734,2.306954 -0.212435,0.449154 -0.449666,0.886387 -0.68989,1.321314 -0.209439,0.379191 -0.432144,0.750954 -0.65481,1.122532 -0.214073,0.357237 -0.425776,0.716231 -0.65481,1.064066 -0.495086,0.757899 -1.01363,1.577351 -1.859194,1.824115 -0.226907,0.06284 -0.466137,0.0812 -0.701583,0.08185 -0.40278,-0.0055 -0.797774,-0.114097 -1.145918,-0.233856 -0.861653,-0.421048 -1.537976,-1.203047 -2.186598,-1.789035 -0.181676,-0.156679 -0.321912,-0.269095 -0.479415,-0.432642 0,0 0.138364,0.01696 0.233861,0.01169 0.162378,-0.009 0.360087,-0.102267 0.409256,-0.222169 0.154473,-0.376696 -0.02729,-0.770443 -0.152009,-1.110839 -0.118486,-0.359168 -0.253472,-0.703863 -0.38587,-1.028988 -0.05625,-0.123793 -0.123347,-0.242378 -0.187088,-0.362484 -0.02289,-0.04314 -0.07016,-0.128624 -0.07016,-0.128624 0,0 0.436127,0.257951 0.65481,0.385871 0.292901,0.184197 0.613794,0.338288 0.900365,0.479415 0.450022,0.259721 0.960816,0.488011 1.426551,0.596346 0.263247,0.03303 0.408706,-0.133852 0.467725,-0.315709 0.04427,-0.136398 0.04843,-0.29057 0.07016,-0.42095 0.0039,-0.02339 0.01169,-0.07016 0.01169,-0.07016 0,0 0.212758,0.34663 0.327405,0.514493 0.445837,0.618519 1.091537,1.897934 1.683798,1.970276 0.245282,0.0053 0.306681,-0.181307 0.257247,-0.403408 -0.08093,-0.363624 -0.234428,-0.712332 -0.327407,-1.046526 -0.154834,-0.538412 -0.305381,-1.094311 -0.456029,-1.590254 -0.06145,-0.201624 -0.127771,-0.401736 -0.192935,-0.602191 -0.05964,-0.183446 -0.181242,-0.549573 -0.181242,-0.549573 0,0 0.391939,0.213769 0.590498,0.315712 0.405577,0.19516 0.757602,0.402543 1.128379,0.584652 0.339717,0.18704 0.626079,0.281542 0.689888,-0.152007 0.02964,-0.168072 0.04416,-0.338583 0.05847,-0.508648 0.0306,-0.363669 0.04228,-0.728704 0.05846,-1.093299 0.0073,-0.165592 0.01462,-0.331226 0.01754,-0.496955 0.0016,-0.08963 0,-0.26894 0,-0.26894 0,0 0.153439,0.250672 0.263094,0.344945 0.07076,0.06084 0.158541,0.10074 0.245553,0.13447 0.455296,0.168264 0.687782,-0.09963 0.952983,-0.420949 0.134449,-0.187378 0.244244,-0.391811 0.350792,-0.596346 0.0693,-0.133029 0.123298,-0.273499 0.187088,-0.409256 0.05338,-0.113599 0.103805,-0.228798 0.163703,-0.339098 0.06635,-0.122186 0.216321,-0.356643 0.216321,-0.356643 z"
           id="path72479"
           sodipodi:nodetypes="ccssaaccccccssccaccccsccccsccaccccaaacaccaaacc" />
        <path
           style="fill:#ffffff;fill-opacity:1;stroke:none;stroke-width:0.264583px;stroke-linecap:butt;stroke-linejoin:miter;stroke-opacity:1"
           d="m 31.772979,74.22138 c -0.08095,0.0084 -0.166328,0.02474 -0.233861,0.07016 -0.07476,0.05028 -0.12546,0.13191 -0.169549,0.210475 -0.03952,0.07042 -0.06735,0.148574 -0.08185,0.228014 -0.021,0.115045 -0.02106,0.234845 -0.0058,0.350791 0.01296,0.09846 0.03674,0.198004 0.08185,0.28648 0.04162,0.08162 0.10142,0.155067 0.169549,0.216321 0.08203,0.07375 0.174891,0.143975 0.280633,0.175396 0.09716,0.02887 0.206007,0.03163 0.304019,0.0058 0.107301,-0.02828 0.209731,-0.08941 0.28648,-0.169549 0.06573,-0.06864 0.105311,-0.160949 0.13447,-0.2514 0.02715,-0.08421 0.04134,-0.174842 0.03508,-0.263094 -0.0092,-0.12924 -0.0502,-0.256881 -0.105237,-0.374177 -0.04523,-0.09641 -0.109369,-0.184512 -0.181243,-0.263093 -0.07006,-0.07659 -0.143642,-0.159459 -0.239707,-0.198782 -0.08509,-0.03483 -0.183384,-0.03283 -0.274834,-0.02334 z"
           id="path72955"
           sodipodi:nodetypes="aaaaaaaaaaaaaaaa" />
      </g>
      <g
         id="g73295"
         transform="translate(4.9960168,18.392554)"
         style="fill:#34a53d;fill-opacity:1">
        <path
           style="fill:#34a53d;fill-opacity:1;stroke:#34a53d;stroke-width:0.264583px;stroke-linecap:butt;stroke-linejoin:miter;stroke-opacity:1"
           d="m 36.900377,70.555611 c -0.418915,0.980777 -0.867855,1.832999 -1.297927,2.712786 -0.149369,0.30854 -0.293866,0.567823 -0.479415,0.865285 0.418386,0.436644 0.928484,0.858356 1.414858,1.110839 0.479713,0.249025 0.922341,0.417017 1.379779,0.140317 0.437715,-0.366394 0.721825,-0.920279 0.993908,-1.356393 0.359289,-0.644232 0.780322,-1.229776 1.157612,-1.800729 0.111733,-0.169817 0.216452,-0.344167 0.327405,-0.514494 0.107388,-0.164854 0.215645,-0.329186 0.327405,-0.491107 0.07618,-0.110378 0.233861,-0.327405 0.233861,-0.327405 0,0 -0.514699,0.131729 -0.771741,0.198781 -0.206744,0.05393 -0.412679,0.110968 -0.619731,0.163703 -0.20612,0.0525 -0.411308,0.109565 -0.619731,0.152009 -0.836068,0.170259 -1.04966,-0.128553 -0.888667,-0.771749 0.03954,-0.157991 0.116767,-0.304082 0.175396,-0.456028 0.04664,-0.120879 0.0987,-0.239787 0.140317,-0.362485 0.05349,-0.157684 0.107611,-0.316149 0.140316,-0.479414 0.01387,-0.06921 0.02339,-0.210475 0.02339,-0.210475 0,0 -0.0987,0.11569 -0.163703,0.152009 -0.337014,0.188286 -0.550834,0.06571 -0.680086,-0.145215 -0.0463,-0.07556 -0.09154,-0.186437 -0.09154,-0.186437 -0.237053,0.546245 -0.460963,1.064748 -0.701708,1.606202 z"
           id="path71965"
           sodipodi:nodetypes="cccscccaacaassaaacssccc" />
        <path
           style="fill:#ffffff;fill-opacity:1;stroke:none;stroke-width:0.264583px;stroke-linecap:butt;stroke-linejoin:miter;stroke-opacity:1"
           d="m 36.831075,73.952317 c -0.02701,0.110034 -0.03192,0.338669 -0.01255,0.450304 0.01745,0.100601 0.06266,0.198099 0.122777,0.280633 0.09922,0.139518 0.169955,0.194754 0.316569,0.21446 0.08745,0.01175 0.209493,-0.0091 0.320702,-0.06245 0.335921,-0.161201 0.314268,-0.538282 0.233892,-0.812666 -0.04599,-0.157008 -0.08652,-0.255061 -0.25332,-0.352418 -0.330976,-0.19319 -0.655328,0.02739 -0.72807,0.282133 z"
           id="path73188"
           sodipodi:nodetypes="cscssssc" />
      </g>
    </g>
  </g>
</svg>
