<?xml version="1.0" encoding="UTF-8" standalone="no"?>
<!-- Created with Inkscape (http://www.inkscape.org/) -->

<svg
   width="77.311989mm"
   height="17.197916mm"
   viewBox="0 0 77.311989 17.197916"
   version="1.1"
   id="svg5"
   inkscape:version="1.1 (c68e22c387, 2021-05-23)"
   sodipodi:docname="cihr_logo.svg"
   xmlns:inkscape="http://www.inkscape.org/namespaces/inkscape"
   xmlns:sodipodi="http://sodipodi.sourceforge.net/DTD/sodipodi-0.dtd"
   xmlns="http://www.w3.org/2000/svg"
   xmlns:svg="http://www.w3.org/2000/svg">
  <sodipodi:namedview
     id="namedview7"
     pagecolor="#505050"
     bordercolor="#eeeeee"
     borderopacity="1"
     inkscape:pageshadow="0"
     inkscape:pageopacity="0"
     inkscape:pagecheckerboard="0"
     inkscape:document-units="mm"
     showgrid="false"
     inkscape:zoom="5.6568543"
     inkscape:cx="122.24108"
     inkscape:cy="40.393475"
     inkscape:window-width="2560"
     inkscape:window-height="1377"
     inkscape:window-x="1912"
     inkscape:window-y="-8"
     inkscape:window-maximized="1"
     inkscape:current-layer="layer1"
     inkscape:snap-page="false"
     inkscape:snap-global="false" />
  <defs
     id="defs2">
    <inkscape:path-effect
       effect="bspline"
       id="path-effect21745"
       is_visible="true"
       lpeversion="1"
       weight="33.333333"
       steps="2"
       helper_size="0"
       apply_no_weight="true"
       apply_with_weight="true"
       only_selected="false" />
  </defs>
  <g
     inkscape:label="Layer 1"
     inkscape:groupmode="layer"
     id="layer1"
     transform="translate(-30.451897,-84.224777)">
    <rect
       style="fill:#ffffff;stroke:none;stroke-width:0.0529166"
       id="rect888"
       width="77.311989"
       height="17.197916"
       x="30.451897"
       y="84.224777" />
    <g
       id="g10298"
       transform="translate(4.2333335,-0.06661519)">
      <g
         aria-label="CIHR"
         id="text5020"
         style="font-size:7.96438px;line-height:1.25;-inkscape-font-specification:sans-serif;stroke-width:0.264583"
         inkscape:label="CIHR">
        <path
           d="m 49.223492,86.211162 v 0.828327 q -0.396663,-0.369442 -0.847771,-0.552218 -0.447218,-0.182776 -0.95277,-0.182776 -0.995547,0 -1.524432,0.61055 -0.528884,0.606662 -0.528884,1.757764 0,1.147213 0.528884,1.757763 0.528885,0.606662 1.524432,0.606662 0.505552,0 0.95277,-0.182776 0.451108,-0.182777 0.847771,-0.552218 v 0.820549 q -0.412219,0.279997 -0.874993,0.419996 -0.458885,0.139999 -0.972214,0.139999 -1.318323,0 -2.07665,-0.804993 -0.758327,-0.808883 -0.758327,-2.204982 0,-1.399989 0.758327,-2.204982 0.758327,-0.808883 2.07665,-0.808883 0.521107,0 0.979992,0.139999 0.462774,0.13611 0.867215,0.412219 z"
           id="path36" />
        <path
           d="m 50.436816,85.763943 h 0.785549 v 5.806064 h -0.785549 z"
           id="path38" />
        <path
           d="m 52.785686,85.763943 h 0.785549 v 2.379981 h 2.854421 v -2.379981 h 0.785549 v 5.806064 H 56.425656 V 88.80503 h -2.854421 v 2.764977 h -0.785549 z"
           id="path40" />
        <path
           d="m 61.527837,88.847807 q 0.252776,0.08555 0.489996,0.365553 0.241109,0.279998 0.482218,0.769994 l 0.797216,1.586653 h -0.843882 l -0.742772,-1.489432 q -0.287775,-0.583329 -0.559995,-0.773883 -0.268331,-0.190554 -0.734994,-0.190554 h -0.855549 v 2.453869 h -0.785549 v -5.806064 h 1.773319 q 0.995547,0 1.485543,0.416108 0.489996,0.416108 0.489996,1.256101 0,0.548329 -0.256664,0.909993 -0.252776,0.361663 -0.738883,0.501662 z m -1.967762,-2.438313 v 2.061094 h 0.98777 q 0.567773,0 0.855548,-0.260553 0.291665,-0.264443 0.291665,-0.773883 0,-0.50944 -0.291665,-0.766105 -0.287775,-0.260553 -0.855548,-0.260553 z"
           id="path42" />
      </g>
      <g
         aria-label="IRSC"
         id="text8828"
         style="font-size:7.96438px;line-height:1.25;-inkscape-font-specification:sans-serif;stroke-width:0.264583"
         inkscape:label="IRSC">
        <path
           d="m 46.011297,94.202916 h 0.78555 v 5.806064 h -0.78555 z"
           id="path63" />
        <path
           d="m 51.113478,97.28678 q 0.252776,0.08556 0.489996,0.365552 0.241109,0.279998 0.482219,0.769994 l 0.797215,1.586654 h -0.843882 l -0.742771,-1.489433 q -0.287776,-0.583328 -0.559996,-0.773882 -0.268331,-0.190554 -0.734994,-0.190554 h -0.855549 v 2.453869 h -0.785549 v -5.806064 h 1.773319 q 0.995548,0 1.485544,0.416108 0.489996,0.416107 0.489996,1.2561 0,0.548329 -0.256665,0.909993 -0.252776,0.361664 -0.738883,0.501663 z m -1.967762,-2.438314 v 2.061095 h 0.98777 q 0.567773,0 0.855549,-0.260554 0.291664,-0.264442 0.291664,-0.773883 0,-0.50944 -0.291664,-0.766104 -0.287776,-0.260554 -0.855549,-0.260554 z"
           id="path65" />
        <path
           d="m 57.374539,94.39347 v 0.766105 q -0.447219,-0.213887 -0.843882,-0.318887 -0.396664,-0.104999 -0.766105,-0.104999 -0.641662,0 -0.991659,0.248887 -0.346108,0.248887 -0.346108,0.707772 0,0.384997 0.229442,0.583329 0.233332,0.194443 0.878882,0.314997 l 0.474441,0.09722 q 0.878881,0.167221 1.294989,0.591106 0.419997,0.419997 0.419997,1.127769 0,0.843882 -0.567773,1.279434 -0.563885,0.435557 -1.656654,0.435557 -0.412219,0 -0.878881,-0.0933 -0.462774,-0.09333 -0.960548,-0.276107 v -0.808882 q 0.478329,0.268331 0.937214,0.404441 0.458886,0.13611 0.902215,0.13611 0.672773,0 1.038325,-0.264442 0.365553,-0.264443 0.365553,-0.754439 0,-0.427774 -0.264442,-0.668883 -0.260554,-0.241109 -0.859438,-0.361664 l -0.478329,-0.09333 q -0.878882,-0.174999 -1.271657,-0.548329 -0.392774,-0.373331 -0.392774,-1.038325 0,-0.769994 0.540551,-1.213324 0.54444,-0.443329 1.49721,-0.443329 0.40833,0 0.832215,0.07389 0.423886,0.07389 0.867216,0.221665 z"
           id="path67" />
        <path
           d="m 63.297269,94.650134 v 0.828327 q -0.396664,-0.369441 -0.847771,-0.552218 -0.447219,-0.182776 -0.95277,-0.182776 -0.995548,0 -1.524432,0.610551 -0.528885,0.606661 -0.528885,1.757763 0,1.147213 0.528885,1.757764 0.528884,0.606661 1.524432,0.606661 0.505551,0 0.95277,-0.182776 0.451107,-0.182776 0.847771,-0.552218 v 0.820549 q -0.412219,0.279998 -0.874993,0.419997 -0.458886,0.140002 -0.972215,0.140002 -1.318322,0 -2.076649,-0.804997 -0.758328,-0.808882 -0.758328,-2.204982 0,-1.399989 0.758328,-2.204982 0.758327,-0.808882 2.076649,-0.808882 0.521107,0 0.979992,0.139999 0.462774,0.13611 0.867216,0.412218 z"
           id="path69" />
      </g>
    </g>
    <path
       style="fill:none;stroke:#000000;stroke-width:0.264583px;stroke-linecap:butt;stroke-linejoin:miter;stroke-opacity:1"
       d="M 70.006421,85.289978 V 100.35749"
       id="path10333" />
    <g
       id="g129404"
       transform="translate(1.5874978)">
      <g
         aria-label="Instituts de recherche
en santé du Canada"
         id="text14459"
         style="font-size:3.13972px;line-height:1.25;-inkscape-font-specification:sans-serif;stroke-width:0.264583"
         inkscape:label="group2">
        <path
           d="m 71.029651,93.96252 h 0.309679 v 2.288869 h -0.309679 z"
           id="path177" />
        <path
           d="m 73.370643,95.215036 v 1.036353 h -0.282084 v -1.027155 q 0,-0.243757 -0.09505,-0.36487 -0.09505,-0.121112 -0.285151,-0.121112 -0.228427,0 -0.36027,0.145641 -0.131844,0.145642 -0.131844,0.397065 v 0.970431 h -0.283617 v -1.717035 h 0.283617 v 0.266754 q 0.101182,-0.15484 0.237625,-0.231493 0.137976,-0.07665 0.317345,-0.07665 0.295882,0 0.447655,0.183968 0.151774,0.182435 0.151774,0.538107 z"
           id="path179" />
        <path
           d="m 75.027888,94.584945 v 0.266754 q -0.11958,-0.06132 -0.248357,-0.09198 -0.128778,-0.03066 -0.266754,-0.03066 -0.21003,0 -0.315811,0.06439 -0.104249,0.06439 -0.104249,0.193167 0,0.09812 0.07512,0.154839 0.07512,0.05519 0.302014,0.105782 l 0.09658,0.02146 q 0.300481,0.06439 0.426192,0.182435 0.127245,0.116513 0.127245,0.326543 0,0.239158 -0.190101,0.378667 -0.188567,0.139509 -0.519709,0.139509 -0.137976,0 -0.288217,-0.02759 -0.148707,-0.02606 -0.314278,-0.07972 V 95.89725 q 0.156372,0.08125 0.308146,0.122646 0.151774,0.03986 0.300481,0.03986 0.199299,0 0.306613,-0.06745 0.107315,-0.06899 0.107315,-0.193166 0,-0.11498 -0.07819,-0.176303 -0.07665,-0.06132 -0.338808,-0.118046 l -0.09812,-0.023 q -0.262155,-0.05519 -0.378668,-0.168637 -0.116513,-0.11498 -0.116513,-0.314279 0,-0.242224 0.171704,-0.374068 0.171703,-0.131844 0.487515,-0.131844 0.156373,0 0.294349,0.023 0.137976,0.023 0.254489,0.06899 z"
           id="path181" />
        <path
           d="m 75.848078,94.046839 v 0.487515 h 0.581032 v 0.219229 h -0.581032 v 0.932104 q 0,0.21003 0.05672,0.26982 0.05826,0.05979 0.23456,0.05979 h 0.289749 v 0.236093 h -0.289749 q -0.326544,0 -0.450722,-0.121113 -0.124178,-0.122645 -0.124178,-0.444589 v -0.932104 h -0.206964 v -0.219229 h 0.206964 V 94.04684 Z"
           id="path183" />
        <path
           d="m 76.800112,94.534354 h 0.282085 v 1.717035 h -0.282085 z m 0,-0.668417 h 0.282085 v 0.357205 h -0.282085 z"
           id="path185" />
        <path
           d="m 77.951445,94.046839 v 0.487515 h 0.581032 v 0.219229 h -0.581032 v 0.932104 q 0,0.21003 0.05672,0.26982 0.05826,0.05979 0.234559,0.05979 h 0.289749 v 0.236093 h -0.289749 q -0.326543,0 -0.450722,-0.121113 -0.124178,-0.122645 -0.124178,-0.444589 V 94.753584 H 77.46086 v -0.219229 h 0.206964 V 94.04684 Z"
           id="path187" />
        <path
           d="m 78.874351,95.573773 v -1.039419 h 0.282085 v 1.028688 q 0,0.243757 0.09505,0.366403 0.09505,0.121112 0.28515,0.121112 0.228427,0 0.360271,-0.145641 0.133376,-0.145642 0.133376,-0.397065 v -0.973497 h 0.282085 v 1.717035 h -0.282085 v -0.263688 q -0.102715,0.156373 -0.239158,0.233026 -0.13491,0.07512 -0.314279,0.07512 -0.295881,0 -0.449188,-0.183967 -0.153307,-0.183968 -0.153307,-0.538107 z m 0.70981,-1.080812 z"
           id="path189" />
        <path
           d="m 81.172418,94.046839 v 0.487515 h 0.581032 v 0.219229 h -0.581032 v 0.932104 q 0,0.21003 0.05672,0.26982 0.05826,0.05979 0.234559,0.05979 h 0.28975 V 96.25139 H 81.4637 q -0.326543,0 -0.450721,-0.121113 -0.124178,-0.122645 -0.124178,-0.444589 v -0.932104 h -0.206964 v -0.219229 h 0.206964 V 94.04684 Z"
           id="path191" />
        <path
           d="m 83.219062,94.584945 v 0.266754 q -0.11958,-0.06132 -0.248357,-0.09198 -0.128778,-0.03066 -0.266754,-0.03066 -0.21003,0 -0.315811,0.06439 -0.104249,0.06439 -0.104249,0.193167 0,0.09812 0.07512,0.154839 0.07512,0.05519 0.302014,0.105782 l 0.09658,0.02146 q 0.300481,0.06439 0.426192,0.182435 0.127245,0.116513 0.127245,0.326543 0,0.239158 -0.190101,0.378667 -0.188567,0.139509 -0.519709,0.139509 -0.137976,0 -0.288217,-0.02759 -0.148707,-0.02606 -0.314278,-0.07972 V 95.89725 q 0.156373,0.08125 0.308146,0.122646 0.151774,0.03986 0.300481,0.03986 0.199299,0 0.306613,-0.06745 0.107315,-0.06899 0.107315,-0.193166 0,-0.11498 -0.07819,-0.176303 -0.07665,-0.06132 -0.338808,-0.118046 l -0.09812,-0.023 q -0.262155,-0.05519 -0.378668,-0.168637 -0.116513,-0.11498 -0.116513,-0.314279 0,-0.242224 0.171704,-0.374068 0.171703,-0.131844 0.487515,-0.131844 0.156373,0 0.294349,0.023 0.137976,0.023 0.254489,0.06899 z"
           id="path193" />
        <path
           d="m 85.88813,94.794975 v -0.929038 h 0.282084 v 2.385452 H 85.88813 v -0.257556 q -0.08892,0.153307 -0.225361,0.228427 -0.134909,0.07359 -0.32501,0.07359 -0.311212,0 -0.507445,-0.248356 -0.194699,-0.248357 -0.194699,-0.653087 0,-0.404729 0.194699,-0.653086 0.196233,-0.248357 0.507445,-0.248357 0.190101,0 0.32501,0.07512 0.136443,0.07359 0.225361,0.226893 z m -0.961232,0.599429 q 0,0.311213 0.127244,0.489049 0.128778,0.176302 0.352605,0.176302 0.223828,0 0.352606,-0.176302 0.128777,-0.177836 0.128777,-0.489049 0,-0.311212 -0.128777,-0.487515 -0.128778,-0.177835 -0.352606,-0.177835 -0.223827,0 -0.352605,0.177835 -0.127244,0.176303 -0.127244,0.487515 z"
           id="path195" />
        <path
           d="m 88.219924,95.32235 v 0.137976 h -1.296975 q 0.0184,0.291283 0.17477,0.44459 0.157906,0.151773 0.438457,0.151773 0.162505,0 0.314279,-0.03986 0.153306,-0.03986 0.303547,-0.119579 v 0.266754 q -0.151774,0.06439 -0.311213,0.09812 -0.159439,0.03373 -0.323477,0.03373 -0.410861,0 -0.651553,-0.239158 -0.239158,-0.239158 -0.239158,-0.646954 0,-0.421593 0.226894,-0.668417 0.228426,-0.248357 0.614759,-0.248357 0.346473,0 0.547305,0.223828 0.202365,0.222295 0.202365,0.605561 z m -0.282085,-0.08279 q -0.0031,-0.231493 -0.13031,-0.369469 -0.125712,-0.137976 -0.334209,-0.137976 -0.236092,0 -0.378667,0.133377 -0.141042,0.133376 -0.162505,0.375601 z"
           id="path197" />
        <path
           d="m 90.675896,94.798042 q -0.04753,-0.0276 -0.104249,-0.03986 -0.05519,-0.0138 -0.122645,-0.0138 -0.239159,0 -0.367936,0.156373 -0.127245,0.15484 -0.127245,0.446122 v 0.90451 h -0.283617 v -1.717035 h 0.283617 v 0.266754 q 0.08892,-0.156373 0.231493,-0.231493 0.142575,-0.07665 0.346473,-0.07665 0.02913,0 0.06439,0.0046 0.03526,0.0031 0.07819,0.01073 z"
           id="path199" />
        <path
           d="m 92.371468,95.32235 v 0.137976 h -1.296974 q 0.0184,0.291283 0.17477,0.44459 0.157905,0.151773 0.438457,0.151773 0.162505,0 0.314278,-0.03986 0.153307,-0.03986 0.303547,-0.119579 v 0.266754 q -0.151773,0.06439 -0.311212,0.09812 -0.159439,0.03373 -0.323477,0.03373 -0.410862,0 -0.651553,-0.239158 -0.239159,-0.239158 -0.239159,-0.646954 0,-0.421593 0.226894,-0.668417 0.228427,-0.248357 0.61476,-0.248357 0.346473,0 0.547304,0.223828 0.202365,0.222295 0.202365,0.605561 z m -0.282084,-0.08279 q -0.0031,-0.231493 -0.130311,-0.369469 -0.125711,-0.137976 -0.334208,-0.137976 -0.236092,0 -0.378668,0.133377 -0.141042,0.133376 -0.162505,0.375601 z"
           id="path201" />
        <path
           d="m 94.070106,94.600276 v 0.263687 q -0.11958,-0.06592 -0.240692,-0.09812 -0.119579,-0.03373 -0.242224,-0.03373 -0.274419,0 -0.426193,0.174769 -0.151773,0.173237 -0.151773,0.487515 0,0.314279 0.151773,0.489049 0.151774,0.173236 0.426193,0.173236 0.122645,0 0.242224,-0.03219 0.121112,-0.03373 0.240692,-0.09965 v 0.260622 q -0.118046,0.05519 -0.245291,0.08279 -0.125711,0.02759 -0.268287,0.02759 -0.387865,0 -0.616292,-0.243757 -0.228427,-0.243758 -0.228427,-0.657686 0,-0.42006 0.22996,-0.660751 0.231493,-0.240692 0.633156,-0.240692 0.130311,0 0.254489,0.0276 0.124179,0.02606 0.240692,0.07972 z"
           id="path203" />
        <path
           d="m 95.987971,95.215036 v 1.036353 h -0.282084 v -1.027155 q 0,-0.243757 -0.09505,-0.36487 -0.09505,-0.121112 -0.28515,-0.121112 -0.228427,0 -0.360271,0.145641 -0.131844,0.145642 -0.131844,0.397065 v 0.970431 h -0.283617 v -2.385452 h 0.283617 v 0.935171 q 0.101183,-0.15484 0.237626,-0.231493 0.137976,-0.07665 0.317345,-0.07665 0.295881,0 0.447655,0.183968 0.151773,0.182435 0.151773,0.538107 z"
           id="path205" />
        <path
           d="m 98.019284,95.32235 v 0.137976 H 96.72231 q 0.0184,0.291283 0.174769,0.44459 0.157906,0.151773 0.438457,0.151773 0.162505,0 0.314279,-0.03986 0.153307,-0.03986 0.303547,-0.119579 v 0.266754 q -0.151774,0.06439 -0.311212,0.09812 -0.159439,0.03373 -0.323477,0.03373 -0.410862,0 -0.651554,-0.239158 -0.239158,-0.239158 -0.239158,-0.646954 0,-0.421593 0.226894,-0.668417 0.228427,-0.248357 0.614759,-0.248357 0.346473,0 0.547305,0.223828 0.202365,0.222295 0.202365,0.605561 z M 97.7372,95.239565 q -0.0031,-0.231493 -0.130311,-0.369469 -0.125711,-0.137976 -0.334208,-0.137976 -0.236093,0 -0.378668,0.133377 -0.141042,0.133376 -0.162505,0.375601 z"
           id="path207" />
        <path
           d="m 99.47723,94.798042 q -0.04753,-0.0276 -0.104249,-0.03986 -0.05519,-0.0138 -0.122645,-0.0138 -0.239158,0 -0.367936,0.156373 -0.127244,0.15484 -0.127244,0.446122 v 0.90451 h -0.283618 v -1.717035 h 0.283618 v 0.266754 q 0.08892,-0.156373 0.231493,-0.231493 0.142575,-0.07665 0.346473,-0.07665 0.02913,0 0.06439,0.0046 0.03526,0.0031 0.07819,0.01073 z"
           id="path209" />
        <path
           d="m 100.93977,94.600276 v 0.263687 q -0.11957,-0.06592 -0.24069,-0.09812 -0.11958,-0.03373 -0.24222,-0.03373 -0.27442,0 -0.42619,0.174769 -0.151777,0.173237 -0.151777,0.487515 0,0.314279 0.151777,0.489049 0.15177,0.173236 0.42619,0.173236 0.12264,0 0.24222,-0.03219 0.12112,-0.03373 0.24069,-0.09965 v 0.260622 q -0.11804,0.05519 -0.24529,0.08279 -0.12571,0.02759 -0.26828,0.02759 -0.38787,0 -0.616295,-0.243757 -0.228427,-0.243758 -0.228427,-0.657686 0,-0.42006 0.22996,-0.660751 0.231492,-0.240692 0.633152,-0.240692 0.13031,0 0.25449,0.0276 0.12418,0.02606 0.24069,0.07972 z"
           id="path211" />
        <path
           d="m 102.85764,95.215036 v 1.036353 h -0.28208 v -1.027155 q 0,-0.243757 -0.0951,-0.36487 -0.0951,-0.121112 -0.28515,-0.121112 -0.22843,0 -0.36027,0.145641 -0.13185,0.145642 -0.13185,0.397065 v 0.970431 h -0.28361 v -2.385452 h 0.28361 v 0.935171 q 0.10119,-0.15484 0.23763,-0.231493 0.13797,-0.07665 0.31734,-0.07665 0.29589,0 0.44766,0.183968 0.15177,0.182435 0.15177,0.538107 z"
           id="path213" />
        <path
           d="m 104.88895,95.32235 v 0.137976 h -1.29697 q 0.0184,0.291283 0.17477,0.44459 0.1579,0.151773 0.43846,0.151773 0.1625,0 0.31427,-0.03986 0.15331,-0.03986 0.30355,-0.119579 v 0.266754 q -0.15177,0.06439 -0.31121,0.09812 -0.15944,0.03373 -0.32348,0.03373 -0.41086,0 -0.65155,-0.239158 -0.23916,-0.239158 -0.23916,-0.646954 0,-0.421593 0.22689,-0.668417 0.22843,-0.248357 0.61476,-0.248357 0.34648,0 0.54731,0.223828 0.20236,0.222295 0.20236,0.605561 z m -0.28208,-0.08279 q -0.003,-0.231493 -0.13031,-0.369469 -0.12571,-0.137976 -0.33421,-0.137976 -0.23609,0 -0.37867,0.133377 -0.14104,0.133376 -0.1625,0.375601 z"
           id="path215" />
        <path
           d="m 72.486064,99.247 v 0.137976 h -1.296975 q 0.0184,0.291283 0.17477,0.444589 0.157906,0.151774 0.438457,0.151774 0.162505,0 0.314279,-0.03986 0.153306,-0.03986 0.303547,-0.119579 v 0.26675 q -0.151774,0.0644 -0.311213,0.0981 -0.159439,0.0337 -0.323477,0.0337 -0.410862,0 -0.651553,-0.239161 -0.239158,-0.239158 -0.239158,-0.646954 0,-0.421593 0.226894,-0.668417 0.228426,-0.248357 0.614759,-0.248357 0.346473,0 0.547305,0.223828 0.202365,0.222295 0.202365,0.605561 z m -0.282085,-0.08279 q -0.0031,-0.231493 -0.13031,-0.369469 -0.125712,-0.137976 -0.334209,-0.137976 -0.236092,0 -0.378667,0.133376 -0.141042,0.133377 -0.162505,0.375602 z"
           id="path217" />
        <path
           d="m 74.376334,99.139686 v 1.036354 H 74.09425 v -1.027156 q 0,-0.243758 -0.09505,-0.36487 -0.09505,-0.121112 -0.28515,-0.121112 -0.228427,0 -0.360271,0.145641 -0.131844,0.145642 -0.131844,0.397064 v 0.970433 h -0.283617 v -1.717036 h 0.283617 v 0.266754 q 0.101183,-0.15484 0.237626,-0.231493 0.137976,-0.07665 0.317345,-0.07665 0.295881,0 0.447655,0.183968 0.151773,0.182435 0.151773,0.538107 z"
           id="path219" />
        <path
           d="m 77.031605,98.509595 v 0.266754 q -0.119579,-0.06132 -0.248356,-0.09198 -0.128778,-0.03066 -0.266754,-0.03066 -0.21003,0 -0.315812,0.06439 -0.104248,0.06439 -0.104248,0.193167 0,0.09812 0.07512,0.154839 0.07512,0.05519 0.302014,0.105782 l 0.09658,0.02146 q 0.300481,0.06439 0.426193,0.182435 0.127244,0.116513 0.127244,0.326543 0,0.239158 -0.1901,0.378665 -0.188567,0.13951 -0.519709,0.13951 -0.137976,0 -0.288217,-0.0276 -0.148707,-0.0261 -0.314278,-0.0797 v -0.2913 q 0.156372,0.08125 0.308146,0.122645 0.151774,0.03986 0.300481,0.03986 0.199299,0 0.306613,-0.06745 0.107315,-0.06899 0.107315,-0.193166 0,-0.11498 -0.07819,-0.176303 -0.07665,-0.06132 -0.338807,-0.118046 l -0.09812,-0.023 q -0.262155,-0.05519 -0.378668,-0.168637 -0.116513,-0.11498 -0.116513,-0.314279 0,-0.242224 0.171704,-0.374068 0.171703,-0.131844 0.487515,-0.131844 0.156372,0 0.294348,0.023 0.137976,0.023 0.254489,0.06899 z"
           id="path221" />
        <path
           d="m 78.353109,99.312922 q -0.341874,0 -0.473718,0.07819 -0.131844,0.07819 -0.131844,0.266753 0,0.150241 0.09812,0.239158 0.09965,0.08738 0.269819,0.08738 0.234559,0 0.375602,-0.165571 0.142575,-0.167104 0.142575,-0.443056 v -0.06286 z m 0.562635,-0.116513 v 0.979631 H 78.63366 v -0.260623 q -0.09658,0.156373 -0.240692,0.231493 -0.144108,0.0736 -0.352605,0.0736 -0.263687,0 -0.42006,-0.14718 -0.15484,-0.148704 -0.15484,-0.397061 0,-0.28975 0.193167,-0.436924 0.194699,-0.147174 0.579499,-0.147174 h 0.395531 v -0.0276 q 0,-0.194699 -0.128778,-0.300481 -0.127244,-0.107314 -0.358737,-0.107314 -0.147175,0 -0.286684,0.03526 -0.139509,0.03526 -0.268286,0.105782 v -0.260621 q 0.154839,-0.05979 0.300481,-0.08892 0.145641,-0.03066 0.283617,-0.03066 0.372535,0 0.556503,0.193167 0.183968,0.193166 0.183968,0.585631 z"
           id="path223" />
        <path
           d="m 80.924061,99.139686 v 1.036354 h -0.282084 v -1.027156 q 0,-0.243758 -0.09505,-0.36487 -0.09505,-0.121112 -0.285151,-0.121112 -0.228427,0 -0.36027,0.145641 -0.131844,0.145642 -0.131844,0.397064 v 0.970433 h -0.283617 v -1.717036 h 0.283617 v 0.266754 q 0.101182,-0.15484 0.237625,-0.231493 0.137976,-0.07665 0.317345,-0.07665 0.295882,0 0.447655,0.183968 0.151774,0.182435 0.151774,0.538107 z"
           id="path225" />
        <path
           d="m 81.765715,97.971489 v 0.487515 h 0.581032 v 0.219229 h -0.581032 v 0.932104 q 0,0.21003 0.05672,0.26982 0.05826,0.05979 0.234559,0.05979 h 0.28975 v 0.236093 h -0.28975 q -0.326543,0 -0.450721,-0.12111 -0.124178,-0.122648 -0.124178,-0.444592 v -0.932104 h -0.206964 v -0.219229 h 0.206964 V 97.97149 Z"
           id="path227" />
        <path
           d="m 84.186426,99.247 v 0.137976 h -1.296974 q 0.0184,0.291283 0.174769,0.444589 0.157906,0.151774 0.438457,0.151774 0.162505,0 0.314279,-0.03986 0.153306,-0.03986 0.303547,-0.119579 v 0.26675 q -0.151774,0.0644 -0.311213,0.0981 -0.159438,0.0337 -0.323477,0.0337 -0.410861,0 -0.651553,-0.239161 -0.239158,-0.239158 -0.239158,-0.646954 0,-0.421593 0.226894,-0.668417 0.228427,-0.248357 0.614759,-0.248357 0.346473,0 0.547305,0.223828 0.202365,0.222295 0.202365,0.605561 z m -0.282084,-0.08279 q -0.0031,-0.231493 -0.130311,-0.369469 -0.125711,-0.137976 -0.334209,-0.137976 -0.236092,0 -0.378667,0.133376 -0.141042,0.133377 -0.162505,0.375602 z m -0.271353,-1.499339 h 0.30508 l -0.49978,0.576433 H 83.20373 Z"
           id="path229" />
        <path
           d="m 86.777309,98.719625 v -0.929038 h 0.282084 v 2.385453 h -0.282084 v -0.257557 q -0.08892,0.153307 -0.225361,0.228427 -0.13491,0.0736 -0.32501,0.0736 -0.311213,0 -0.507445,-0.248359 -0.1947,-0.248357 -0.1947,-0.653087 0,-0.404729 0.1947,-0.653086 0.196232,-0.248357 0.507445,-0.248357 0.1901,0 0.32501,0.07512 0.136443,0.07359 0.225361,0.226893 z m -0.961233,0.599429 q 0,0.311213 0.127244,0.489049 0.128778,0.176302 0.352606,0.176302 0.223827,0 0.352605,-0.176302 0.128778,-0.177836 0.128778,-0.489049 0,-0.311212 -0.128778,-0.487515 -0.128778,-0.177835 -0.352605,-0.177835 -0.223828,0 -0.352606,0.177835 -0.127244,0.176303 -0.127244,0.487515 z"
           id="path231" />
        <path
           d="m 87.611297,99.498423 v -1.039419 h 0.282084 v 1.028688 q 0,0.243757 0.09505,0.366403 0.09505,0.121112 0.285151,0.121112 0.228427,0 0.36027,-0.145642 0.133377,-0.145641 0.133377,-0.397064 v -0.973497 h 0.282084 v 1.717036 h -0.282084 v -0.263689 q -0.102715,0.156369 -0.239158,0.233029 -0.13491,0.0751 -0.314279,0.0751 -0.295882,0 -0.449188,-0.18397 -0.153307,-0.183969 -0.153307,-0.538107 z m 0.70981,-1.080812 z"
           id="path233" />
        <path
           d="m 92.354604,98.063473 v 0.326543 q -0.156373,-0.145641 -0.334209,-0.217695 -0.176303,-0.07205 -0.375601,-0.07205 -0.392465,0 -0.600962,0.240691 -0.208497,0.239158 -0.208497,0.692946 0,0.452255 0.208497,0.692946 0.208497,0.239158 0.600962,0.239158 0.199298,0 0.375601,-0.07205 0.177836,-0.07205 0.334209,-0.217695 v 0.323477 q -0.162505,0.110386 -0.34494,0.165576 -0.180902,0.0552 -0.383267,0.0552 -0.519709,0 -0.818657,-0.317349 -0.298948,-0.318878 -0.298948,-0.869249 0,-0.551904 0.298948,-0.869249 0.298948,-0.318877 0.818657,-0.318877 0.205431,0 0.386333,0.05519 0.182435,0.05366 0.341874,0.162505 z"
           id="path235" />
        <path
           d="m 93.600987,99.312922 q -0.341874,0 -0.473717,0.07819 -0.131844,0.07819 -0.131844,0.266753 0,0.150241 0.09812,0.239158 0.09965,0.08738 0.26982,0.08738 0.234559,0 0.375601,-0.165571 0.142575,-0.167104 0.142575,-0.443056 v -0.06286 z m 0.562636,-0.116513 v 0.979631 h -0.282085 v -0.260623 q -0.09658,0.156373 -0.240691,0.231493 -0.144108,0.0736 -0.352605,0.0736 -0.263688,0 -0.420061,-0.14718 -0.154839,-0.148704 -0.154839,-0.397061 0,-0.28975 0.193166,-0.436924 0.1947,-0.147174 0.579499,-0.147174 h 0.395531 v -0.0276 q 0,-0.194699 -0.128777,-0.300481 -0.127245,-0.107314 -0.358738,-0.107314 -0.147174,0 -0.286683,0.03526 -0.139509,0.03526 -0.268287,0.105782 v -0.260621 q 0.15484,-0.05979 0.300481,-0.08892 0.145641,-0.03066 0.283617,-0.03066 0.372536,0 0.556504,0.193167 0.183968,0.193166 0.183968,0.585631 z"
           id="path237" />
        <path
           d="m 96.171939,99.139686 v 1.036354 h -0.282084 v -1.027156 q 0,-0.243758 -0.09505,-0.36487 -0.09505,-0.121112 -0.285151,-0.121112 -0.228427,0 -0.36027,0.145641 -0.131844,0.145642 -0.131844,0.397064 v 0.970433 h -0.283617 v -1.717036 h 0.283617 v 0.266754 q 0.101182,-0.15484 0.237625,-0.231493 0.137976,-0.07665 0.317345,-0.07665 0.295882,0 0.447655,0.183968 0.151774,0.182435 0.151774,0.538107 z"
           id="path239" />
        <path
           d="m 97.514905,99.312922 q -0.341874,0 -0.473718,0.07819 -0.131844,0.07819 -0.131844,0.266753 0,0.150241 0.09812,0.239158 0.09965,0.08738 0.269819,0.08738 0.23456,0 0.375602,-0.165571 0.142575,-0.167104 0.142575,-0.443056 v -0.06286 z m 0.562635,-0.116513 v 0.979631 h -0.282084 v -0.260623 q -0.09658,0.156373 -0.240692,0.231493 -0.144108,0.0736 -0.352605,0.0736 -0.263687,0 -0.42006,-0.14718 -0.15484,-0.148704 -0.15484,-0.397061 0,-0.28975 0.193167,-0.436924 0.194699,-0.147174 0.579499,-0.147174 h 0.395531 v -0.0276 q 0,-0.194699 -0.128778,-0.300481 -0.127244,-0.107314 -0.358737,-0.107314 -0.147175,0 -0.286684,0.03526 -0.139509,0.03526 -0.268286,0.105782 v -0.260621 q 0.154839,-0.05979 0.300481,-0.08892 0.145641,-0.03066 0.283617,-0.03066 0.372535,0 0.556503,0.193167 0.183968,0.193166 0.183968,0.585631 z"
           id="path241" />
        <path
           d="m 99.788444,98.719625 v -0.929038 h 0.282086 v 2.385453 h -0.282086 v -0.257557 q -0.08892,0.153307 -0.225361,0.228427 -0.13491,0.0736 -0.32501,0.0736 -0.311213,0 -0.507445,-0.248359 -0.1947,-0.248357 -0.1947,-0.653087 0,-0.404729 0.1947,-0.653086 0.196232,-0.248357 0.507445,-0.248357 0.1901,0 0.32501,0.07512 0.136443,0.07359 0.225361,0.226893 z m -0.961233,0.599429 q 0,0.311213 0.127245,0.489049 0.128777,0.176302 0.352605,0.176302 0.223827,0 0.352605,-0.176302 0.128778,-0.177836 0.128778,-0.489049 0,-0.311212 -0.128778,-0.487515 -0.128778,-0.177835 -0.352605,-0.177835 -0.223828,0 -0.352605,0.177835 -0.127245,0.176303 -0.127245,0.487515 z"
           id="path243" />
        <path
           d="m 101.43189,99.312922 q -0.34187,0 -0.47372,0.07819 -0.13184,0.07819 -0.13184,0.266753 0,0.150241 0.0981,0.239158 0.0996,0.08738 0.26982,0.08738 0.23456,0 0.37561,-0.165571 0.14257,-0.167104 0.14257,-0.443056 v -0.06286 z m 0.56263,-0.116513 v 0.979631 h -0.28208 v -0.260623 q -0.0966,0.156373 -0.24069,0.231493 -0.14411,0.0736 -0.35261,0.0736 -0.26368,0 -0.42006,-0.14718 -0.15484,-0.148704 -0.15484,-0.397061 0,-0.28975 0.19317,-0.436924 0.1947,-0.147174 0.5795,-0.147174 h 0.39553 v -0.0276 q 0,-0.194699 -0.12878,-0.300481 -0.12724,-0.107314 -0.35873,-0.107314 -0.14718,0 -0.28669,0.03526 -0.13951,0.03526 -0.26828,0.105782 v -0.260621 q 0.15483,-0.05979 0.30048,-0.08892 0.14564,-0.03066 0.28361,-0.03066 0.37254,0 0.55651,0.193167 0.18396,0.193166 0.18396,0.585631 z"
           id="path245" />
      </g>
      <g
         aria-label="Canadian Institutes of
Health Research"
         id="text11957"
         style="font-size:3.13972px;line-height:1.25;-inkscape-font-specification:sans-serif;stroke-width:0.264583"
         inkscape:label="group1">
        <path
           d="m 72.740697,85.699851 v 0.326543 q -0.156373,-0.145642 -0.334209,-0.217696 -0.176302,-0.07205 -0.375601,-0.07205 -0.392465,0 -0.600962,0.240692 -0.208497,0.239158 -0.208497,0.692946 0,0.452254 0.208497,0.692946 0.208497,0.239158 0.600962,0.239158 0.199299,0 0.375601,-0.07205 0.177836,-0.07205 0.334209,-0.217696 v 0.323477 q -0.162505,0.110381 -0.34494,0.165572 -0.180902,0.05519 -0.383267,0.05519 -0.519709,0 -0.818657,-0.317345 -0.298948,-0.318878 -0.298948,-0.869248 0,-0.551904 0.298948,-0.869249 0.298948,-0.318878 0.818657,-0.318878 0.205431,0 0.386333,0.05519 0.182435,0.05366 0.341874,0.162505 z"
           id="path90" />
        <path
           d="m 73.98708,86.9493 q -0.341874,0 -0.473718,0.07819 -0.131844,0.07819 -0.131844,0.266754 0,0.15024 0.09812,0.239158 0.09965,0.08738 0.269819,0.08738 0.234559,0 0.375602,-0.165571 0.142575,-0.167105 0.142575,-0.443057 V 86.9493 Z m 0.562635,-0.116513 v 0.979629 h -0.282084 v -0.260621 q -0.09658,0.156373 -0.240692,0.231493 -0.144108,0.07359 -0.352605,0.07359 -0.263687,0 -0.42006,-0.147174 -0.15484,-0.148708 -0.15484,-0.397065 0,-0.289749 0.193167,-0.436923 0.194699,-0.147175 0.579499,-0.147175 h 0.395531 v -0.0276 q 0,-0.194699 -0.128778,-0.300481 -0.127244,-0.107315 -0.358737,-0.107315 -0.147175,0 -0.286684,0.03526 -0.139509,0.03526 -0.268286,0.105781 v -0.260621 q 0.154839,-0.05979 0.300481,-0.08892 0.145641,-0.03066 0.283617,-0.03066 0.372535,0 0.556503,0.193166 0.183968,0.193167 0.183968,0.585632 z"
           id="path92" />
        <path
           d="m 76.558032,86.776063 v 1.036353 h -0.282084 v -1.027154 q 0,-0.243758 -0.09505,-0.36487 -0.09505,-0.121112 -0.28515,-0.121112 -0.228427,0 -0.360271,0.145641 -0.131844,0.145641 -0.131844,0.397064 v 0.970431 h -0.283617 v -1.717034 h 0.283617 v 0.266753 q 0.101183,-0.154839 0.237625,-0.231493 0.137976,-0.07665 0.317345,-0.07665 0.295882,0 0.447656,0.183968 0.151773,0.182435 0.151773,0.538106 z"
           id="path94" />
        <path
           d="m 77.900998,86.9493 q -0.341874,0 -0.473718,0.07819 -0.131843,0.07819 -0.131843,0.266754 0,0.15024 0.09812,0.239158 0.09965,0.08738 0.26982,0.08738 0.234559,0 0.375601,-0.165571 0.142575,-0.167105 0.142575,-0.443057 V 86.9493 Z m 0.562635,-0.116513 v 0.979629 h -0.282084 v -0.260621 q -0.09658,0.156373 -0.240691,0.231493 -0.144109,0.07359 -0.352606,0.07359 -0.263687,0 -0.42006,-0.147174 -0.15484,-0.148708 -0.15484,-0.397065 0,-0.289749 0.193167,-0.436923 0.194699,-0.147175 0.579499,-0.147175 h 0.395531 v -0.0276 q 0,-0.194699 -0.128778,-0.300481 -0.127244,-0.107315 -0.358737,-0.107315 -0.147174,0 -0.286684,0.03526 -0.139509,0.03526 -0.268286,0.105781 v -0.260621 q 0.15484,-0.05979 0.300481,-0.08892 0.145641,-0.03066 0.283617,-0.03066 0.372535,0 0.556503,0.193166 0.183968,0.193167 0.183968,0.585632 z"
           id="path96" />
        <path
           d="m 80.174536,86.356003 v -0.929038 h 0.282084 v 2.385451 h -0.282084 v -0.257555 q -0.08892,0.153307 -0.225361,0.228427 -0.13491,0.07359 -0.32501,0.07359 -0.311213,0 -0.507445,-0.248357 -0.194699,-0.248357 -0.194699,-0.653086 0,-0.40473 0.194699,-0.653086 0.196232,-0.248357 0.507445,-0.248357 0.1901,0 0.32501,0.07512 0.136443,0.07359 0.225361,0.226894 z m -0.961233,0.599429 q 0,0.311212 0.127245,0.489048 0.128777,0.176303 0.352605,0.176303 0.223828,0 0.352605,-0.176303 0.128778,-0.177836 0.128778,-0.489048 0,-0.311213 -0.128778,-0.487515 -0.128777,-0.177836 -0.352605,-0.177836 -0.223828,0 -0.352605,0.177836 -0.127245,0.176302 -0.127245,0.487515 z"
           id="path98" />
        <path
           d="m 81.037652,86.095382 h 0.282084 v 1.717034 h -0.282084 z m 0,-0.668417 h 0.282084 v 0.357204 h -0.282084 z"
           id="path100" />
        <path
           d="m 82.690298,86.9493 q -0.341874,0 -0.473718,0.07819 -0.131843,0.07819 -0.131843,0.266754 0,0.15024 0.09812,0.239158 0.09965,0.08738 0.26982,0.08738 0.234559,0 0.375601,-0.165571 0.142575,-0.167105 0.142575,-0.443057 V 86.9493 Z m 0.562635,-0.116513 v 0.979629 h -0.282084 v -0.260621 q -0.09658,0.156373 -0.240691,0.231493 -0.144109,0.07359 -0.352606,0.07359 -0.263687,0 -0.42006,-0.147174 -0.15484,-0.148708 -0.15484,-0.397065 0,-0.289749 0.193167,-0.436923 0.194699,-0.147175 0.579499,-0.147175 h 0.395531 v -0.0276 q 0,-0.194699 -0.128778,-0.300481 -0.127244,-0.107315 -0.358737,-0.107315 -0.147175,0 -0.286684,0.03526 -0.139509,0.03526 -0.268286,0.105781 v -0.260621 q 0.15484,-0.05979 0.300481,-0.08892 0.145641,-0.03066 0.283617,-0.03066 0.372535,0 0.556503,0.193166 0.183968,0.193167 0.183968,0.585632 z"
           id="path102" />
        <path
           d="m 85.26125,86.776063 v 1.036353 h -0.282085 v -1.027154 q 0,-0.243758 -0.09505,-0.36487 -0.09505,-0.121112 -0.28515,-0.121112 -0.228427,0 -0.360271,0.145641 -0.131843,0.145641 -0.131843,0.397064 v 0.970431 h -0.283618 v -1.717034 h 0.283618 v 0.266753 q 0.101182,-0.154839 0.237625,-0.231493 0.137976,-0.07665 0.317345,-0.07665 0.295882,0 0.447655,0.183968 0.151774,0.182435 0.151774,0.538106 z"
           id="path104" />
        <path
           d="m 86.834176,85.523548 h 0.309679 v 2.288868 h -0.309679 z"
           id="path106" />
        <path
           d="m 89.175168,86.776063 v 1.036353 h -0.282084 v -1.027154 q 0,-0.243758 -0.09505,-0.36487 -0.09505,-0.121112 -0.28515,-0.121112 -0.228427,0 -0.360271,0.145641 -0.131844,0.145641 -0.131844,0.397064 v 0.970431 h -0.283617 v -1.717034 h 0.283617 v 0.266753 q 0.101183,-0.154839 0.237625,-0.231493 0.137976,-0.07665 0.317345,-0.07665 0.295882,0 0.447656,0.183968 0.151773,0.182435 0.151773,0.538106 z"
           id="path108" />
        <path
           d="m 90.832412,86.145973 v 0.266753 q -0.119579,-0.06132 -0.248356,-0.09198 -0.128778,-0.03066 -0.266754,-0.03066 -0.21003,0 -0.315812,0.06439 -0.104248,0.06439 -0.104248,0.193166 0,0.09812 0.07512,0.15484 0.07512,0.05519 0.302014,0.105782 l 0.09658,0.02146 q 0.300481,0.06439 0.426193,0.182434 0.127244,0.116513 0.127244,0.326544 0,0.239158 -0.1901,0.378667 -0.188567,0.139509 -0.519709,0.139509 -0.137976,0 -0.288217,-0.0276 -0.148707,-0.02606 -0.314278,-0.07972 v -0.291282 q 0.156372,0.08125 0.308146,0.122645 0.151774,0.03986 0.300481,0.03986 0.199299,0 0.306613,-0.06746 0.107315,-0.06899 0.107315,-0.193167 0,-0.114979 -0.07819,-0.176302 -0.07665,-0.06132 -0.338807,-0.118046 l -0.09812,-0.023 q -0.262155,-0.05519 -0.378668,-0.168638 -0.116513,-0.11498 -0.116513,-0.314278 0,-0.242225 0.171704,-0.374068 0.171703,-0.131844 0.487515,-0.131844 0.156372,0 0.294348,0.023 0.137976,0.023 0.254489,0.06899 z"
           id="path110" />
        <path
           d="m 91.652603,85.607867 v 0.487515 h 0.581033 v 0.219228 h -0.581033 v 0.932105 q 0,0.21003 0.05672,0.269819 0.05826,0.05979 0.234559,0.05979 h 0.28975 v 0.236092 h -0.28975 q -0.326543,0 -0.450722,-0.121112 -0.124178,-0.122645 -0.124178,-0.444589 V 86.31461 h -0.206964 v -0.219228 h 0.206964 v -0.487515 z"
           id="path112" />
        <path
           d="m 92.604638,86.095382 h 0.282084 v 1.717034 h -0.282084 z m 0,-0.668417 h 0.282084 v 0.357204 h -0.282084 z"
           id="path114" />
        <path
           d="m 93.75597,85.607867 v 0.487515 h 0.581032 V 86.31461 H 93.75597 v 0.932105 q 0,0.21003 0.05672,0.269819 0.05826,0.05979 0.234559,0.05979 h 0.289749 v 0.236092 h -0.289749 q -0.326543,0 -0.450722,-0.121112 -0.124178,-0.122645 -0.124178,-0.444589 V 86.31461 h -0.206964 v -0.219228 h 0.206964 v -0.487515 z"
           id="path116" />
        <path
           d="m 94.678876,87.134801 v -1.039419 h 0.282084 v 1.028687 q 0,0.243758 0.09505,0.366403 0.09505,0.121112 0.28515,0.121112 0.228427,0 0.360271,-0.145641 0.133376,-0.145641 0.133376,-0.397064 v -0.973497 h 0.282085 v 1.717034 h -0.282085 v -0.263687 q -0.102715,0.156372 -0.239158,0.233026 -0.13491,0.07512 -0.314279,0.07512 -0.295881,0 -0.449188,-0.183968 -0.153307,-0.183968 -0.153307,-0.538106 z m 0.70981,-1.080812 z"
           id="path118" />
        <path
           d="m 96.976942,85.607867 v 0.487515 h 0.581032 v 0.219228 h -0.581032 v 0.932105 q 0,0.21003 0.05672,0.269819 0.05826,0.05979 0.234559,0.05979 h 0.289749 v 0.236092 h -0.289749 q -0.326543,0 -0.450722,-0.121112 -0.124178,-0.122645 -0.124178,-0.444589 V 86.31461 h -0.206964 v -0.219228 h 0.206964 v -0.487515 z"
           id="path120" />
        <path
           d="m 99.397654,86.883378 v 0.137976 H 98.10068 q 0.0184,0.291282 0.17477,0.444589 0.157905,0.151774 0.438457,0.151774 0.162505,0 0.314278,-0.03986 0.153307,-0.03986 0.303547,-0.119579 v 0.266753 q -0.151773,0.06439 -0.311212,0.09812 -0.159439,0.03373 -0.323477,0.03373 -0.410862,0 -0.651553,-0.239158 -0.239159,-0.239159 -0.239159,-0.646954 0,-0.421594 0.226894,-0.668417 0.228427,-0.248357 0.61476,-0.248357 0.346473,0 0.547304,0.223828 0.202365,0.222294 0.202365,0.605561 z m -0.282084,-0.08279 q -0.0031,-0.231493 -0.130311,-0.369469 -0.125711,-0.137976 -0.334208,-0.137976 -0.236092,0 -0.378668,0.133377 -0.141042,0.133377 -0.162505,0.375601 z"
           id="path122" />
        <path
           d="m 100.95525,86.145973 v 0.266753 q -0.11958,-0.06132 -0.24836,-0.09198 -0.12877,-0.03066 -0.26675,-0.03066 -0.21003,0 -0.31581,0.06439 -0.10425,0.06439 -0.10425,0.193166 0,0.09812 0.0751,0.15484 0.0751,0.05519 0.30201,0.105782 l 0.0966,0.02146 q 0.30048,0.06439 0.42619,0.182434 0.12724,0.116513 0.12724,0.326544 0,0.239158 -0.1901,0.378667 -0.18856,0.139509 -0.51971,0.139509 -0.13797,0 -0.28821,-0.0276 -0.14871,-0.02606 -0.314281,-0.07972 v -0.291282 q 0.156372,0.08125 0.308151,0.122645 0.15177,0.03986 0.30048,0.03986 0.19929,0 0.30661,-0.06746 0.10731,-0.06899 0.10731,-0.193167 0,-0.114979 -0.0782,-0.176302 -0.0767,-0.06132 -0.33881,-0.118046 l -0.0981,-0.023 q -0.262151,-0.05519 -0.378664,-0.168638 -0.116513,-0.11498 -0.116513,-0.314278 0,-0.242225 0.171704,-0.374068 0.171703,-0.131844 0.487513,-0.131844 0.15637,0 0.29435,0.023 0.13798,0.023 0.25449,0.06899 z"
           id="path124" />
        <path
           d="m 103.1598,86.293147 q -0.22689,0 -0.35874,0.177836 -0.13184,0.176303 -0.13184,0.484449 0,0.308146 0.13031,0.485982 0.13184,0.176303 0.36027,0.176303 0.22536,0 0.3572,-0.177836 0.13185,-0.177836 0.13185,-0.484449 0,-0.30508 -0.13185,-0.482916 -0.13184,-0.179369 -0.3572,-0.179369 z m 0,-0.239158 q 0.36793,0 0.57797,0.239158 0.21003,0.239159 0.21003,0.662285 0,0.421593 -0.21003,0.662285 -0.21004,0.239158 -0.57797,0.239158 -0.36947,0 -0.5795,-0.239158 -0.2085,-0.240692 -0.2085,-0.662285 0,-0.423126 0.2085,-0.662285 0.21003,-0.239158 0.5795,-0.239158 z"
           id="path126" />
        <path
           d="m 105.28463,85.426965 v 0.234559 h -0.26982 q -0.15177,0 -0.21156,0.06132 -0.0583,0.06132 -0.0583,0.220761 v 0.151774 h 0.46452 v 0.219228 h -0.46452 v 1.497806 h -0.28362 V 86.31461 h -0.26982 v -0.219228 h 0.26982 v -0.119579 q 0,-0.286684 0.13338,-0.416995 0.13338,-0.131843 0.42313,-0.131843 z"
           id="path128" />
        <path
           d="m 71.026728,89.448198 h 0.30968 v 0.938237 h 1.125271 v -0.938237 h 0.309679 v 2.288868 h -0.309679 v -1.09001 h -1.125271 v 1.09001 h -0.30968 z"
           id="path130" />
        <path
           d="m 74.844064,90.808028 v 0.137976 H 73.54709 q 0.0184,0.291282 0.174769,0.444589 0.157906,0.151774 0.438457,0.151774 0.162505,0 0.314279,-0.03986 0.153307,-0.03986 0.303547,-0.119579 v 0.266753 q -0.151774,0.06439 -0.311212,0.09812 -0.159439,0.03373 -0.323477,0.03373 -0.410862,0 -0.651554,-0.239158 -0.239158,-0.239159 -0.239158,-0.646954 0,-0.421594 0.226894,-0.668417 0.228427,-0.248357 0.614759,-0.248357 0.346473,0 0.547305,0.223828 0.202365,0.222294 0.202365,0.605561 z m -0.282084,-0.08279 q -0.0031,-0.231493 -0.130311,-0.369469 -0.125711,-0.137976 -0.334208,-0.137976 -0.236093,0 -0.378668,0.133377 -0.141042,0.133377 -0.162505,0.375601 z"
           id="path132" />
        <path
           d="m 76.087381,90.87395 q -0.341874,0 -0.473718,0.07819 -0.131844,0.07819 -0.131844,0.266754 0,0.15024 0.09812,0.239158 0.09965,0.08738 0.269819,0.08738 0.234559,0 0.375602,-0.165571 0.142575,-0.167105 0.142575,-0.443057 v -0.06286 z m 0.562635,-0.116513 v 0.979629 h -0.282084 v -0.260621 q -0.09658,0.156373 -0.240692,0.231493 -0.144108,0.07359 -0.352605,0.07359 -0.263687,0 -0.42006,-0.147174 -0.15484,-0.148708 -0.15484,-0.397065 0,-0.289749 0.193167,-0.436924 0.194699,-0.147174 0.579499,-0.147174 h 0.395531 v -0.0276 q 0,-0.1947 -0.128778,-0.300481 -0.127244,-0.107315 -0.358737,-0.107315 -0.147175,0 -0.286684,0.03526 -0.139509,0.03526 -0.268286,0.105781 v -0.260621 q 0.154839,-0.05979 0.300481,-0.08892 0.145641,-0.03066 0.283617,-0.03066 0.372535,0 0.556503,0.193166 0.183968,0.193167 0.183968,0.585632 z"
           id="path134" />
        <path
           d="m 77.231048,89.351615 h 0.282084 v 2.385451 h -0.282084 z"
           id="path136" />
        <path
           d="m 78.382381,89.532517 v 0.487515 h 0.581032 v 0.219228 h -0.581032 v 0.932105 q 0,0.21003 0.05672,0.269819 0.05826,0.05979 0.234559,0.05979 h 0.289749 v 0.236092 H 78.67366 q -0.326543,0 -0.450722,-0.121112 Q 78.09876,91.493308 78.09876,91.171365 V 90.23926 H 77.8918 v -0.219228 h 0.206964 v -0.487515 z"
           id="path138" />
        <path
           d="m 80.7617,90.700713 v 1.036353 h -0.282084 v -1.027154 q 0,-0.243758 -0.09505,-0.36487 -0.09505,-0.121112 -0.28515,-0.121112 -0.228427,0 -0.36027,0.145641 -0.131844,0.145641 -0.131844,0.397064 v 0.970431 h -0.283617 v -2.385451 h 0.283617 v 0.93517 q 0.101182,-0.154839 0.237625,-0.231493 0.137976,-0.07665 0.317345,-0.07665 0.295882,0 0.447655,0.183968 0.151774,0.182435 0.151774,0.538106 z"
           id="path140" />
        <path
           d="m 83.420037,90.66392 q 0.09965,0.03373 0.193166,0.144108 0.09505,0.110381 0.190101,0.303547 l 0.314278,0.625491 h -0.332675 l -0.292816,-0.587164 q -0.113447,-0.22996 -0.220761,-0.305081 -0.105782,-0.07512 -0.28975,-0.07512 h -0.337275 v 0.967365 h -0.309679 v -2.288868 h 0.699078 q 0.392465,0 0.585632,0.164038 0.193166,0.164038 0.193166,0.49518 0,0.216163 -0.101182,0.358738 -0.09965,0.142575 -0.291283,0.197766 z m -0.775732,-0.961233 v 0.812525 h 0.389399 q 0.223828,0 0.337275,-0.102715 0.11498,-0.104249 0.11498,-0.305081 0,-0.200831 -0.11498,-0.302014 -0.113447,-0.102715 -0.337275,-0.102715 z"
           id="path142" />
        <path
           d="m 85.83155,90.808028 v 0.137976 h -1.296974 q 0.0184,0.291282 0.17477,0.444589 0.157906,0.151774 0.438457,0.151774 0.162505,0 0.314278,-0.03986 0.153307,-0.03986 0.303547,-0.119579 v 0.266753 q -0.151773,0.06439 -0.311212,0.09812 -0.159439,0.03373 -0.323477,0.03373 -0.410862,0 -0.651553,-0.239158 -0.239159,-0.239159 -0.239159,-0.646954 0,-0.421594 0.226894,-0.668417 0.228427,-0.248357 0.61476,-0.248357 0.346473,0 0.547305,0.223828 0.202364,0.222294 0.202364,0.605561 z m -0.282084,-0.08279 q -0.0031,-0.231493 -0.130311,-0.369469 -0.125711,-0.137976 -0.334208,-0.137976 -0.236092,0 -0.378667,0.133377 -0.141043,0.133377 -0.162506,0.375601 z"
           id="path144" />
        <path
           d="m 87.389147,90.070623 v 0.266753 q -0.11958,-0.06132 -0.248357,-0.09198 -0.128778,-0.03066 -0.266754,-0.03066 -0.21003,0 -0.315811,0.06439 -0.104249,0.06439 -0.104249,0.193166 0,0.09812 0.07512,0.15484 0.07512,0.05519 0.302014,0.105782 l 0.09658,0.02146 q 0.300481,0.06439 0.426192,0.182435 0.127245,0.116513 0.127245,0.326544 0,0.239158 -0.190101,0.378667 -0.188567,0.139509 -0.519709,0.139509 -0.137976,0 -0.288217,-0.0276 -0.148707,-0.02606 -0.314278,-0.07972 v -0.291282 q 0.156372,0.08125 0.308146,0.122645 0.151774,0.03986 0.300481,0.03986 0.199299,0 0.306613,-0.06746 0.107315,-0.06899 0.107315,-0.193167 0,-0.11498 -0.07819,-0.176302 -0.07665,-0.06132 -0.338808,-0.118046 l -0.09812,-0.023 q -0.262155,-0.05519 -0.378668,-0.168638 -0.116513,-0.11498 -0.116513,-0.314278 0,-0.242225 0.171704,-0.374068 0.171703,-0.131844 0.487515,-0.131844 0.156373,0 0.294349,0.023 0.137975,0.023 0.254489,0.06899 z"
           id="path146" />
        <path
           d="m 89.398997,90.808028 v 0.137976 h -1.296974 q 0.0184,0.291282 0.174769,0.444589 0.157906,0.151774 0.438457,0.151774 0.162505,0 0.314279,-0.03986 0.153307,-0.03986 0.303547,-0.119579 v 0.266753 q -0.151773,0.06439 -0.311212,0.09812 -0.159439,0.03373 -0.323477,0.03373 -0.410862,0 -0.651554,-0.239158 -0.239158,-0.239159 -0.239158,-0.646954 0,-0.421594 0.226894,-0.668417 0.228427,-0.248357 0.61476,-0.248357 0.346473,0 0.547304,0.223828 0.202365,0.222294 0.202365,0.605561 z m -0.282084,-0.08279 q -0.0031,-0.231493 -0.130311,-0.369469 -0.125711,-0.137976 -0.334208,-0.137976 -0.236093,0 -0.378668,0.133377 -0.141042,0.133377 -0.162505,0.375601 z"
           id="path148" />
        <path
           d="m 90.642314,90.87395 q -0.341874,0 -0.473718,0.07819 -0.131844,0.07819 -0.131844,0.266754 0,0.15024 0.09812,0.239158 0.09965,0.08738 0.269819,0.08738 0.23456,0 0.375602,-0.165571 0.142575,-0.167105 0.142575,-0.443057 v -0.06286 z m 0.562635,-0.116513 v 0.979629 h -0.282084 v -0.260621 q -0.09658,0.156373 -0.240692,0.231493 -0.144108,0.07359 -0.352605,0.07359 -0.263687,0 -0.42006,-0.147174 -0.15484,-0.148708 -0.15484,-0.397065 0,-0.289749 0.193167,-0.436924 0.194699,-0.147174 0.579499,-0.147174 h 0.395531 v -0.0276 q 0,-0.1947 -0.128778,-0.300481 -0.127244,-0.107315 -0.358737,-0.107315 -0.147175,0 -0.286684,0.03526 -0.139509,0.03526 -0.268286,0.105781 v -0.260621 q 0.154839,-0.05979 0.300481,-0.08892 0.145641,-0.03066 0.283617,-0.03066 0.372535,0 0.556503,0.193166 0.183968,0.193167 0.183968,0.585632 z"
           id="path150" />
        <path
           d="m 92.780941,90.283719 q -0.04752,-0.0276 -0.104249,-0.03986 -0.05519,-0.0138 -0.122645,-0.0138 -0.239158,0 -0.367936,0.156373 -0.127244,0.154839 -0.127244,0.446122 v 0.904509 h -0.283618 v -1.717034 h 0.283618 v 0.266753 q 0.08892,-0.156373 0.231493,-0.231493 0.142575,-0.07665 0.346473,-0.07665 0.02913,0 0.06439,0.0046 0.03526,0.0031 0.07819,0.01073 z"
           id="path152" />
        <path
           d="m 94.243486,90.085954 v 0.263687 q -0.11958,-0.06592 -0.240692,-0.09812 -0.119579,-0.03373 -0.242224,-0.03373 -0.274419,0 -0.426193,0.17477 -0.151773,0.173236 -0.151773,0.487515 0,0.314279 0.151773,0.489048 0.151774,0.173237 0.426193,0.173237 0.122645,0 0.242224,-0.0322 0.121112,-0.03373 0.240692,-0.09965 v 0.260621 q -0.118047,0.05519 -0.245291,0.08279 -0.125712,0.0276 -0.268287,0.0276 -0.387866,0 -0.616292,-0.243758 -0.228427,-0.243757 -0.228427,-0.657685 0,-0.42006 0.22996,-0.660752 0.231493,-0.240691 0.633156,-0.240691 0.130311,0 0.254489,0.0276 0.124178,0.02606 0.240692,0.07972 z"
           id="path154" />
        <path
           d="m 96.161351,90.700713 v 1.036353 h -0.282084 v -1.027154 q 0,-0.243758 -0.09505,-0.36487 -0.09505,-0.121112 -0.28515,-0.121112 -0.228427,0 -0.360271,0.145641 -0.131844,0.145641 -0.131844,0.397064 v 0.970431 h -0.283617 v -2.385451 h 0.283617 v 0.93517 q 0.101183,-0.154839 0.237626,-0.231493 0.137976,-0.07665 0.317344,-0.07665 0.295882,0 0.447656,0.183968 0.151773,0.182435 0.151773,0.538106 z"
           id="path156" />
      </g>
    </g>
    <path
       style="fill:#75c834;fill-opacity:1;fill-rule:nonzero;stroke:none;stroke-width:0.499999;stroke-miterlimit:4;stroke-dasharray:none;stroke-opacity:1"
       d=""
       id="path51614"
       transform="matrix(0.26458333,0,0,0.26458333,32.036072,84.224777)" />
    <path
       style="fill:#75c834;fill-opacity:1;fill-rule:nonzero;stroke:none;stroke-width:0.499999;stroke-miterlimit:4;stroke-dasharray:none;stroke-opacity:1"
       d=""
       id="path51653"
       transform="matrix(0.26458333,0,0,0.26458333,32.036072,84.224777)" />
    <g
       id="g107028"
       transform="translate(-1.0583333)">
      <path
         style="fill:#76c933;fill-opacity:1;stroke:#76c933;stroke-width:0.264583px;stroke-linecap:butt;stroke-linejoin:miter;stroke-opacity:1"
         d="m 32.333732,94.568332 c 0.274798,-0.103948 0.365037,-0.1454 0.568744,-0.263409 0.265519,-0.153815 0.456516,-0.455927 0.456516,-0.455927 0,0 0.335068,0.259984 0.529167,0.396875 0.427936,0.287647 0.818234,0.494842 1.21543,0.760677 0.41785,0.279658 0.860208,0.533342 1.227294,0.876934 0.322427,0.301791 0.746788,0.593027 0.839763,1.024759 0.08951,0.415667 0.09676,0.948596 -0.330733,1.231966 -0.541606,0.35901 -1.201282,0.320186 -1.893425,0.413411 -0.332481,0.04484 -0.606352,0.06324 -0.752409,0.08268 -0.146057,0.01944 -0.496093,0.05788 -0.496093,0.05788 l 0.243913,-0.198437 c 0.395205,-0.320825 0.75435,-0.593642 1.079003,-0.884701 0.234148,-0.230456 0.423836,-0.463858 0.596817,-0.734869 0.115498,-0.202332 0.128622,-0.478519 0.02329,-0.678998 -0.261719,-0.498129 -0.904506,-0.689135 -1.422135,-0.909505 -0.242756,-0.103349 -0.490601,-0.184596 -0.719336,-0.272852 -0.228735,-0.08826 -0.458794,-0.182123 -0.65319,-0.256315 -0.194396,-0.07419 -0.512617,-0.190169 -0.512616,-0.190169 z"
         id="path69904"
         sodipodi:nodetypes="csccaaasczccccaszzc" />
      <g
         id="g73291"
         transform="translate(4.7955731,18.405078)"
         style="fill:#34a53d;fill-opacity:1;stroke:#34a53d;stroke-opacity:1">
        <path
           style="fill:#34a53d;fill-opacity:1;stroke:#34a53d;stroke-width:0.264583px;stroke-linecap:butt;stroke-linejoin:miter;stroke-opacity:1"
           d="m 35.023644,74.60725 c 0,0 -0.262888,0.483235 -0.350791,0.67235 -0.330485,0.731156 -0.620213,1.3657 -0.660657,2.110594 -0.0089,0.163697 -0.02953,0.406545 0.02923,0.578806 0.139082,0.353433 0.415343,0.581455 0.713275,0.660657 0.659547,0.175333 1.214926,0.03274 1.759803,-0.29817 0.161574,-0.100746 0.309589,-0.200741 0.42095,-0.309866 0.111361,-0.109125 0.188455,-0.207572 0.2514,-0.327405 0.144688,-0.248905 0.107139,-0.516386 0.05876,-0.734949 -0.03336,-0.150712 -0.222461,-0.428509 -0.257541,-0.49282 C 36.647099,75.946 36.284372,75.657497 35.822904,75.288286 35.553285,75.07257 35.292399,74.833052 35.023647,74.60725 Z"
           id="path70840"
           sodipodi:nodetypes="ccscsczcscscc" />
        <path
           style="fill:#ffffff;fill-opacity:1;stroke:#34a53d;stroke-width:0.264583px;stroke-linecap:butt;stroke-linejoin:miter;stroke-opacity:1"
           d="m 35.554226,78.149695 c 0.209692,0.06176 0.414086,-0.05498 0.506429,-0.210843 0.114837,-0.19383 0.09969,-0.459524 0.03928,-0.675928 -0.04517,-0.16183 -0.204304,-0.328817 -0.390674,-0.39274 -0.625796,-0.176043 -0.659369,0.308144 -0.639197,0.666225 0.02712,0.481323 0.288626,0.5557 0.484162,0.613286 z"
           id="path71084"
           sodipodi:nodetypes="ssscss" />
      </g>
      <path
         style="fill:#028855;fill-opacity:1;stroke:#028855;stroke-width:0.264583px;stroke-linecap:butt;stroke-linejoin:miter;stroke-opacity:1"
         d="m 44.281323,100.32715 c 0,0 -0.315256,-0.632732 -0.463021,-0.963245 -0.147765,-0.330513 -0.239777,-0.56224 -0.256315,-0.603581 -0.01654,-0.04134 -0.158444,-0.359565 -0.165365,-0.504362 -0.0069,-0.144797 -0.0015,-0.227516 0.07441,-0.330729 0.0759,-0.103213 0.22532,-0.155931 0.372071,-0.214974 0.698149,-0.23808 1.353864,-0.107383 2.10013,-0.04134 0.253559,0.02205 0.537436,0.04961 0.570508,0.04961 0.03307,0 0.702799,0.04961 0.702799,0.04961 0,0 -0.195434,-0.345113 -0.338997,-0.529167 -0.143563,-0.184054 -0.423408,-0.451924 -0.686263,-0.607715 -0.49385,-0.2927 -0.922193,-0.509772 -1.620573,-0.58291 -0.20872,-0.0066 -0.521694,-0.02594 -0.735873,0.0083 -0.644139,0.08024 -1.090166,0.276909 -1.51722,0.711068 -0.290895,0.297618 -0.444186,0.51432 -0.538646,0.814126 -0.04969,0.157703 -0.04832,0.375698 -0.05253,0.508791 0.0012,0.53662 0.213677,0.806918 0.578777,1.107942 0.231856,0.204807 0.489817,0.411641 0.7028,0.578776 0.380159,0.25561 0.67982,0.51348 1.047997,0.72554 0.122062,0.0703 0.26807,0.13644 0.382408,0.17983 z"
         id="path71218"
         sodipodi:nodetypes="czzzzcczczacccscccacc" />
      <path
         style="fill:#028855;fill-opacity:1;stroke:#028855;stroke-width:0.264583px;stroke-linecap:butt;stroke-linejoin:miter;stroke-opacity:1"
         d="m 45.984578,92.311105 c 0,0 -0.119066,0.194027 -0.165365,0.297657 -0.08791,0.192782 -0.103902,0.298514 -0.07441,0.446484 0.01525,0.0765 0.05937,0.154795 0.124024,0.198438 0.183271,0.12372 0.432216,0.107642 0.65319,0.115755 0.313144,0.0115 0.54606,0.01394 0.818555,0 0.484106,-0.0147 0.87675,-0.02455 1.30638,-0.06615 0.183618,-0.01177 0.326595,-0.02481 0.326595,-0.02481 -0.976039,0.695031 -1.8334,1.682001 -2.199349,2.893881 0,0 -0.350103,-0.19502 -0.615983,-0.289389 -0.729125,-0.258789 -0.967143,-0.327243 -1.513086,-0.438216 -0.34971,-0.07108 -0.669507,-0.129619 -0.939741,-0.278696 -0.162827,-0.127388 -0.246914,-0.267827 -0.259152,-0.515052 0.004,-0.300383 0.0845,-0.591423 0.248047,-0.810286 0.232633,-0.311318 0.45934,-0.481158 0.694531,-0.686263 0.0845,-0.06824 0.175287,-0.128341 0.264583,-0.190169 0.240852,-0.181355 0.385909,-0.26097 0.634587,-0.38654 0.193139,-0.107039 0.482778,-0.218525 0.696594,-0.266644 z"
         id="path71565"
         sodipodi:nodetypes="ccaasccccssccsccccc" />
      <g
         id="g73299"
         transform="rotate(-1.0652985,1020.2569,-186.10408)"
         style="fill:#76c933;fill-opacity:1">
        <path
           style="fill:#76c933;fill-opacity:1;stroke:#76c933;stroke-width:0.264583px;stroke-linecap:butt;stroke-linejoin:miter;stroke-opacity:1"
           d="m 37.204396,66.86061 c 0,0 0.06357,0.471657 0.07601,0.713276 0.0097,0.414482 0.04613,0.831132 -0.09095,1.177572 -0.318488,0.804879 -0.681421,1.578971 -1.025734,2.306954 -0.212435,0.449154 -0.449666,0.886387 -0.68989,1.321314 -0.209439,0.379191 -0.432144,0.750954 -0.65481,1.122532 -0.214073,0.357237 -0.425776,0.716231 -0.65481,1.064066 -0.495086,0.757899 -1.01363,1.577351 -1.859194,1.824115 -0.226907,0.06284 -0.466137,0.0812 -0.701583,0.08185 -0.40278,-0.0055 -0.797774,-0.114097 -1.145918,-0.233856 -0.861653,-0.421048 -1.537976,-1.203047 -2.186598,-1.789035 -0.181676,-0.156679 -0.321912,-0.269095 -0.479415,-0.432642 0,0 0.138364,0.01696 0.233861,0.01169 0.162378,-0.009 0.360087,-0.102267 0.409256,-0.222169 0.154473,-0.376696 -0.02729,-0.770443 -0.152009,-1.110839 -0.118486,-0.359168 -0.253472,-0.703863 -0.38587,-1.028988 -0.05625,-0.123793 -0.123347,-0.242378 -0.187088,-0.362484 -0.02289,-0.04314 -0.07016,-0.128624 -0.07016,-0.128624 0,0 0.436127,0.257951 0.65481,0.385871 0.292901,0.184197 0.613794,0.338288 0.900365,0.479415 0.450022,0.259721 0.960816,0.488011 1.426551,0.596346 0.263247,0.03303 0.408706,-0.133852 0.467725,-0.315709 0.04427,-0.136398 0.04843,-0.29057 0.07016,-0.42095 0.0039,-0.02339 0.01169,-0.07016 0.01169,-0.07016 0,0 0.212758,0.34663 0.327405,0.514493 0.445837,0.618519 1.091537,1.897934 1.683798,1.970276 0.245282,0.0053 0.306681,-0.181307 0.257247,-0.403408 -0.08093,-0.363624 -0.234428,-0.712332 -0.327407,-1.046526 -0.154834,-0.538412 -0.305381,-1.094311 -0.456029,-1.590254 -0.06145,-0.201624 -0.127771,-0.401736 -0.192935,-0.602191 -0.05964,-0.183446 -0.181242,-0.549573 -0.181242,-0.549573 0,0 0.391939,0.213769 0.590498,0.315712 0.405577,0.19516 0.757602,0.402543 1.128379,0.584652 0.339717,0.18704 0.626079,0.281542 0.689888,-0.152007 0.02964,-0.168072 0.04416,-0.338583 0.05847,-0.508648 0.0306,-0.363669 0.04228,-0.728704 0.05846,-1.093299 0.0073,-0.165592 0.01462,-0.331226 0.01754,-0.496955 0.0016,-0.08963 0,-0.26894 0,-0.26894 0,0 0.153439,0.250672 0.263094,0.344945 0.07076,0.06084 0.158541,0.10074 0.245553,0.13447 0.455296,0.168264 0.687782,-0.09963 0.952983,-0.420949 0.134449,-0.187378 0.244244,-0.391811 0.350792,-0.596346 0.0693,-0.133029 0.123298,-0.273499 0.187088,-0.409256 0.05338,-0.113599 0.103805,-0.228798 0.163703,-0.339098 0.06635,-0.122186 0.216321,-0.356643 0.216321,-0.356643 z"
           id="path72479"
           sodipodi:nodetypes="ccssaaccccccssccaccccsccccsccaccccaaacaccaaacc" />
        <path
           style="fill:#ffffff;fill-opacity:1;stroke:none;stroke-width:0.264583px;stroke-linecap:butt;stroke-linejoin:miter;stroke-opacity:1"
           d="m 31.772979,74.22138 c -0.08095,0.0084 -0.166328,0.02474 -0.233861,0.07016 -0.07476,0.05028 -0.12546,0.13191 -0.169549,0.210475 -0.03952,0.07042 -0.06735,0.148574 -0.08185,0.228014 -0.021,0.115045 -0.02106,0.234845 -0.0058,0.350791 0.01296,0.09846 0.03674,0.198004 0.08185,0.28648 0.04162,0.08162 0.10142,0.155067 0.169549,0.216321 0.08203,0.07375 0.174891,0.143975 0.280633,0.175396 0.09716,0.02887 0.206007,0.03163 0.304019,0.0058 0.107301,-0.02828 0.209731,-0.08941 0.28648,-0.169549 0.06573,-0.06864 0.105311,-0.160949 0.13447,-0.2514 0.02715,-0.08421 0.04134,-0.174842 0.03508,-0.263094 -0.0092,-0.12924 -0.0502,-0.256881 -0.105237,-0.374177 -0.04523,-0.09641 -0.109369,-0.184512 -0.181243,-0.263093 -0.07006,-0.07659 -0.143642,-0.159459 -0.239707,-0.198782 -0.08509,-0.03483 -0.183384,-0.03283 -0.274834,-0.02334 z"
           id="path72955"
           sodipodi:nodetypes="aaaaaaaaaaaaaaaa" />
      </g>
      <g
         id="g73295"
         transform="translate(4.9960168,18.392554)"
         style="fill:#34a53d;fill-opacity:1">
        <path
           style="fill:#34a53d;fill-opacity:1;stroke:#34a53d;stroke-width:0.264583px;stroke-linecap:butt;stroke-linejoin:miter;stroke-opacity:1"
           d="m 36.900377,70.555611 c -0.418915,0.980777 -0.867855,1.832999 -1.297927,2.712786 -0.149369,0.30854 -0.293866,0.567823 -0.479415,0.865285 0.418386,0.436644 0.928484,0.858356 1.414858,1.110839 0.479713,0.249025 0.922341,0.417017 1.379779,0.140317 0.437715,-0.366394 0.721825,-0.920279 0.993908,-1.356393 0.359289,-0.644232 0.780322,-1.229776 1.157612,-1.800729 0.111733,-0.169817 0.216452,-0.344167 0.327405,-0.514494 0.107388,-0.164854 0.215645,-0.329186 0.327405,-0.491107 0.07618,-0.110378 0.233861,-0.327405 0.233861,-0.327405 0,0 -0.514699,0.131729 -0.771741,0.198781 -0.206744,0.05393 -0.412679,0.110968 -0.619731,0.163703 -0.20612,0.0525 -0.411308,0.109565 -0.619731,0.152009 -0.836068,0.170259 -1.04966,-0.128553 -0.888667,-0.771749 0.03954,-0.157991 0.116767,-0.304082 0.175396,-0.456028 0.04664,-0.120879 0.0987,-0.239787 0.140317,-0.362485 0.05349,-0.157684 0.107611,-0.316149 0.140316,-0.479414 0.01387,-0.06921 0.02339,-0.210475 0.02339,-0.210475 0,0 -0.0987,0.11569 -0.163703,0.152009 -0.337014,0.188286 -0.550834,0.06571 -0.680086,-0.145215 -0.0463,-0.07556 -0.09154,-0.186437 -0.09154,-0.186437 -0.237053,0.546245 -0.460963,1.064748 -0.701708,1.606202 z"
           id="path71965"
           sodipodi:nodetypes="cccscccaacaassaaacssccc" />
        <path
           style="fill:#ffffff;fill-opacity:1;stroke:none;stroke-width:0.264583px;stroke-linecap:butt;stroke-linejoin:miter;stroke-opacity:1"
           d="m 36.831075,73.952317 c -0.02701,0.110034 -0.03192,0.338669 -0.01255,0.450304 0.01745,0.100601 0.06266,0.198099 0.122777,0.280633 0.09922,0.139518 0.169955,0.194754 0.316569,0.21446 0.08745,0.01175 0.209493,-0.0091 0.320702,-0.06245 0.335921,-0.161201 0.314268,-0.538282 0.233892,-0.812666 -0.04599,-0.157008 -0.08652,-0.255061 -0.25332,-0.352418 -0.330976,-0.19319 -0.655328,0.02739 -0.72807,0.282133 z"
           id="path73188"
           sodipodi:nodetypes="cscssssc" />
      </g>
    </g>
  </g>
</svg>
