<?xml version="1.0" encoding="UTF-8" standalone="no"?>
<svg
   xmlns:dc="http://purl.org/dc/elements/1.1/"
   xmlns:cc="http://creativecommons.org/ns#"
   xmlns:rdf="http://www.w3.org/1999/02/22-rdf-syntax-ns#"
   xmlns:svg="http://www.w3.org/2000/svg"
   xmlns="http://www.w3.org/2000/svg"
   xmlns:sodipodi="http://sodipodi.sourceforge.net/DTD/sodipodi-0.dtd"
   xmlns:inkscape="http://www.inkscape.org/namespaces/inkscape"
   width="13.229167mm"
   height="13.229085mm"
   viewBox="0 0 13.229167 13.229085"
   version="1.1"
   id="svg8"
   inkscape:version="1.0.1 (3bc2e813f5, 2020-09-07)"
   sodipodi:docname="github.svg"
   inkscape:export-filename="C:\Users\Merlin\Files\Work\curation\www\github.png"
   inkscape:export-xdpi="150"
   inkscape:export-ydpi="150">
  <defs
     id="defs2">
    <pattern
       id="EMFhbasepattern"
       patternUnits="userSpaceOnUse"
       width="6"
       height="6"
       x="0"
       y="0" />
  </defs>
  <sodipodi:namedview
     id="base"
     pagecolor="#ffffff"
     bordercolor="#666666"
     borderopacity="1.0"
     inkscape:pageopacity="0.0"
     inkscape:pageshadow="2"
     inkscape:zoom="7.9195959"
     inkscape:cx="47.005166"
     inkscape:cy="27.13463"
     inkscape:document-units="mm"
     inkscape:current-layer="layer1"
     inkscape:document-rotation="0"
     showgrid="false"
     inkscape:window-width="2560"
     inkscape:window-height="1377"
     inkscape:window-x="1912"
     inkscape:window-y="-8"
     inkscape:window-maximized="1" />
  <metadata
     id="metadata5">
    <rdf:RDF>
      <cc:Work
         rdf:about="">
        <dc:format>image/svg+xml</dc:format>
        <dc:type
           rdf:resource="http://purl.org/dc/dcmitype/StillImage" />
        <dc:title />
      </cc:Work>
    </rdf:RDF>
  </metadata>
  <g
     inkscape:label="Layer 1"
     inkscape:groupmode="layer"
     id="layer1"
     transform="translate(-82.74341,-166.44897)">
    <path
       style="fill:#191717;fill-opacity:1;fill-rule:evenodd;stroke:none;stroke-width:0.309767"
       d="m 89.357953,166.44897 c -3.66344,0 -6.614543,3.03838 -6.614543,6.81015 0,2.9336 1.933475,5.55288 4.477547,6.39105 0.407031,0.10483 0.508803,-0.10483 0.508803,-0.3143 0,-0.10483 0,-0.52387 0,-1.1525 -1.831713,0.4191 -2.238767,-0.83817 -2.238767,-0.83817 -0.305283,-0.83816 -0.712336,-1.04771 -0.712336,-1.04771 -0.610575,-0.41909 0,-0.41909 0,-0.41909 0.712336,0.10484 1.017618,0.73339 1.017618,0.73339 0.610575,1.04773 1.526432,0.73341 1.933485,0.52388 0.101817,-0.4191 0.203522,-0.7334 0.407055,-0.94295 -1.424683,-0.10483 -3.052877,-0.7334 -3.052877,-3.3527 0,-0.7334 0.305294,-1.36202 0.712337,-1.7811 -0.101817,-0.20955 -0.305282,-0.83818 0.101817,-1.78112 0,0 0.508803,-0.20955 1.831715,0.62864 0.508803,-0.10484 1.017616,-0.20955 1.628191,-0.20955 0.610577,0 1.119379,0.10483 1.628182,0.20955 1.322912,-0.83819 1.831715,-0.62864 1.831715,-0.62864 0.407053,0.94294 0.203532,1.57157 0.101817,1.78112 0.407055,0.41908 0.712348,1.0477 0.712348,1.7811 0,2.6193 -1.628205,3.24793 -3.052865,3.3527 0.203522,0.20955 0.407042,0.62862 0.407042,1.25725 0,0.94295 0,1.67635 0,1.8859 0,0.20953 0.101816,0.41908 0.508815,0.3143 2.645811,-0.83817 4.477525,-3.45745 4.477525,-6.39105 0,-3.77177 -2.951094,-6.81015 -6.614522,-6.81015 z"
       id="path13" />
  </g>
</svg>
